<?xml version="1.0" encoding="UTF-8" standalone="no"?>
<!-- Created with Inkscape (http://www.inkscape.org/) -->

<svg
   width="125.74911mm"
   height="133.68243mm"
   viewBox="0 0 475.27226 505.25645"
   version="1.1"
   id="svg5"
   xml:space="preserve"
   xmlns="http://www.w3.org/2000/svg"
   xmlns:svg="http://www.w3.org/2000/svg"><defs
     id="defs2" /><g
     id="layer1"
     transform="translate(-191.42726,-316.07167)"><g
       id="g179"
       transform="translate(-51.386859,23.609632)"><path
         style="fill:#d0d0d0;fill-opacity:1;stroke-width:0.32"
         d="m 525.65571,728.33194 c 0.39805,-0.0765 0.97405,-0.0736 1.28,0.006 0.30592,0.0801 -0.0198,0.14272 -0.72374,0.13917 -0.704,-0.004 -0.95434,-0.0691 -0.55626,-0.14563 z m -4.80374,-0.3056 c 0.22,-0.0888 0.58,-0.0888 0.8,0 0.22,0.0888 0.04,0.16141 -0.4,0.16141 -0.44,0 -0.62,-0.0726 -0.4,-0.16141 z m 10.08,-0.009 c 0.308,-0.0805 0.812,-0.0805 1.12,0 0.308,0.0805 0.056,0.14634 -0.56,0.14634 -0.616,0 -0.868,-0.0659 -0.56,-0.14634 z m -33.8704,-9.45942 -0.6096,-0.72 0.72,0.6096 c 0.67661,0.57286 0.86566,0.8304 0.6096,0.8304 -0.0607,0 -0.38474,-0.324 -0.72,-0.72 z m -1.90973,-1.92 -0.93987,-1.04 1.04,0.93987 c 0.572,0.51693 1.04,0.98493 1.04,1.04 0,0.24723 -0.26403,0.0294 -1.14013,-0.93987 z m 71.54012,-3.88083 c 0,-0.0664 0.252,-0.31843 0.56,-0.56 0.50756,-0.39802 0.51885,-0.38672 0.12084,0.12083 -0.41805,0.53302 -0.68084,0.70256 -0.68084,0.43917 z m 5.28,-4.99917 c 1.22256,-1.232 2.29485,-2.24 2.38285,-2.24 0.088,0 -0.84029,1.008 -2.06285,2.24 -1.22256,1.232 -2.29484,2.24 -2.38284,2.24 -0.088,0 0.84028,-1.008 2.06284,-2.24 z m 5.92,-6.52083 c 0,-0.0664 0.252,-0.31843 0.56,-0.56 0.50756,-0.39802 0.51885,-0.38672 0.12084,0.12083 -0.41805,0.53302 -0.68084,0.70256 -0.68084,0.43917 z m 1.6,-1.92 c 0,-0.0664 0.252,-0.31843 0.56,-0.56 0.50756,-0.39802 0.51885,-0.38672 0.12084,0.12083 -0.41805,0.53302 -0.68084,0.70256 -0.68084,0.43917 z m 1.28,-1.6 c 0,-0.0664 0.252,-0.31843 0.56,-0.56 0.50756,-0.39802 0.51885,-0.38672 0.12084,0.12083 -0.41805,0.53302 -0.68084,0.70256 -0.68084,0.43917 z m -98.76639,-8.99917 c 0,-1.584 0.0531,-2.27235 0.12022,-1.52966 0.0671,0.74268 0.0679,2.03868 0.003,2.88 -0.0661,0.84131 -0.12105,0.23366 -0.12201,-1.35034 z m 0.23165,-4.50666 c 0.0154,-0.3728 0.0912,-0.4486 0.19334,-0.19334 0.0924,0.23101 0.0811,0.50701 -0.0253,0.61334 -0.10634,0.10634 -0.18198,-0.0827 -0.1681,-0.42 z m -80.25916,-15.0751 c 0.31135,-0.0811 0.74335,-0.0758 0.96,0.0118 0.21665,0.0876 -0.0381,0.15402 -0.56609,0.14752 -0.528,-0.006 -0.70526,-0.0782 -0.39391,-0.15939 z m -21.56691,-7.69824 c -0.39804,-0.50755 -0.38672,-0.51885 0.12082,-0.12083 0.53304,0.41805 0.70255,0.68083 0.43918,0.68083 -0.0665,0 -0.31845,-0.252 -0.56,-0.56 z M 353.01197,602.5777 c 0.308,-0.0805 0.812,-0.0805 1.12,0 0.308,0.0805 0.056,0.14634 -0.56,0.14634 -0.616,0 -0.868,-0.0659 -0.56,-0.14634 z m -9.75627,-0.32576 c 0.39805,-0.0765 0.97405,-0.0736 1.28,0.006 0.30595,0.0801 -0.0197,0.14272 -0.72373,0.13917 -0.704,-0.004 -0.95432,-0.0691 -0.55627,-0.14563 z m -10.08373,-0.31424 c 0.308,-0.0805 0.812,-0.0805 1.12,0 0.308,0.0805 0.056,0.14634 -0.56,0.14634 -0.616,0 -0.868,-0.0659 -0.56,-0.14634 z m -9.75627,-0.32576 c 0.39806,-0.0765 0.97406,-0.0736 1.28,0.006 0.30595,0.0801 -0.0197,0.14272 -0.72373,0.13917 -0.704,-0.004 -0.95432,-0.0691 -0.55627,-0.14563 z m -9.92,-0.32 c 0.39806,-0.0765 0.97406,-0.0736 1.28,0.006 0.30595,0.0801 -0.0197,0.14272 -0.72373,0.13917 -0.704,-0.004 -0.95432,-0.0691 -0.55627,-0.14563 z m 49.15163,-6.17366 c 0,-1.672 0.0539,-2.356 0.11985,-1.52 0.0659,0.836 0.0659,2.204 0,3.04 -0.0659,0.836 -0.11985,0.152 -0.11985,-1.52 z m -0.32,-31.68 c 0,-1.672 0.0539,-2.356 0.11985,-1.52 0.0659,0.836 0.0659,2.204 0,3.04 -0.0659,0.836 -0.11985,0.152 -0.11985,-1.52 z m -184.83535,-3.41194 c 0.22,-0.0888 0.58,-0.0888 0.8,0 0.22,0.0888 0.04,0.16141 -0.4,0.16141 -0.44,0 -0.62,-0.0726 -0.4,-0.16141 z m 373.86523,-13.41472 c 0.0154,-0.3728 0.0912,-0.4486 0.19335,-0.19334 0.0924,0.23101 0.0811,0.50701 -0.0253,0.61334 -0.10634,0.10634 -0.18199,-0.0827 -0.1681,-0.42 z m 1.28,-7.04 c 0.0154,-0.3728 0.0912,-0.4486 0.19335,-0.19334 0.0924,0.23101 0.0811,0.50701 -0.0253,0.61334 -0.10634,0.10634 -0.18199,-0.0827 -0.1681,-0.42 z m 97.6,-1.6 c 0.0154,-0.3728 0.0912,-0.4486 0.19334,-0.19334 0.0924,0.23101 0.0811,0.50701 -0.0253,0.61334 -0.10633,0.10634 -0.18198,-0.0827 -0.16809,-0.42 z m -288.22988,-6.21334 c 0,-1.672 0.0539,-2.356 0.11985,-1.52 0.0659,0.836 0.0659,2.204 0,3.04 -0.0659,0.836 -0.11985,0.152 -0.11985,-1.52 z m 191.58988,2.05334 c 0.0154,-0.3728 0.0912,-0.4486 0.19335,-0.19334 0.0924,0.23101 0.0811,0.50701 -0.0253,0.61334 -0.10634,0.10634 -0.18199,-0.0827 -0.1681,-0.42 z m 0.32,-1.6 c 0.0154,-0.3728 0.0912,-0.4486 0.19335,-0.19334 0.0924,0.23101 0.0811,0.50701 -0.0253,0.61334 -0.10634,0.10634 -0.18199,-0.0827 -0.1681,-0.42 z m 97.6,-1.28 c 0.0154,-0.3728 0.0912,-0.4486 0.19334,-0.19334 0.0924,0.23101 0.0811,0.50701 -0.0253,0.61334 -0.10633,0.10634 -0.18198,-0.0827 -0.16809,-0.42 z m -96.64,-4.8 c 0.0154,-0.3728 0.0912,-0.4486 0.19335,-0.19334 0.0924,0.23101 0.0811,0.50701 -0.0253,0.61334 -0.10634,0.10634 -0.18199,-0.0827 -0.1681,-0.42 z m 97.6,-1.28 c 0.0154,-0.3728 0.0912,-0.4486 0.19334,-0.19334 0.0924,0.23101 0.0811,0.50701 -0.0253,0.61334 -0.10633,0.10634 -0.18198,-0.0827 -0.16809,-0.42 z m 0.96,-6.4 c 0.0154,-0.3728 0.0912,-0.4486 0.19334,-0.19334 0.0924,0.23101 0.0811,0.50701 -0.0253,0.61334 -0.10633,0.10634 -0.18198,-0.0827 -0.16809,-0.42 z m -97.28,-0.32 c 0.0154,-0.3728 0.0912,-0.4486 0.19335,-0.19334 0.0924,0.23101 0.0811,0.50701 -0.0253,0.61334 -0.10634,0.10634 -0.18199,-0.0827 -0.1681,-0.42 z m 97.6,-1.6 c 0.0154,-0.3728 0.0912,-0.4486 0.19334,-0.19334 0.0924,0.23101 0.0811,0.50701 -0.0253,0.61334 -0.10633,0.10634 -0.18198,-0.0827 -0.16809,-0.42 z m -96.64,-5.12 c 0.0154,-0.3728 0.0912,-0.4486 0.19335,-0.19334 0.0924,0.23101 0.0811,0.50701 -0.0253,0.61334 -0.10634,0.10634 -0.18199,-0.0827 -0.1681,-0.42 z m 0.32,-1.92 c 0.0154,-0.3728 0.0912,-0.4486 0.19335,-0.19334 0.0925,0.23101 0.0811,0.50701 -0.0253,0.61334 -0.10634,0.10634 -0.18199,-0.0827 -0.1681,-0.42 z m 97.28,-0.64 c 0.0154,-0.3728 0.0912,-0.4486 0.19334,-0.19334 0.0925,0.23101 0.0811,0.50701 -0.0253,0.61334 -0.10633,0.10634 -0.18198,-0.0827 -0.16809,-0.42 z m -293.02988,-8.77334 c 0,-1.672 0.0539,-2.356 0.11985,-1.52 0.0659,0.836 0.0659,2.204 0,3.04 -0.0659,0.836 -0.11985,0.152 -0.11985,-1.52 z m 196.73516,2.24 c 0,-0.44 0.0726,-0.62 0.16141,-0.4 0.0888,0.22 0.0888,0.58 0,0.8 -0.0888,0.22 -0.16141,0.04 -0.16141,-0.4 z m 97.25472,-1.78666 c 0.0154,-0.3728 0.0912,-0.4486 0.19334,-0.19334 0.0924,0.23101 0.0811,0.50701 -0.0253,0.61334 -0.10633,0.10634 -0.18198,-0.0827 -0.16809,-0.42 z m -96.96,-0.32 c 0.0154,-0.3728 0.0912,-0.4486 0.19335,-0.19334 0.0924,0.23101 0.0811,0.50701 -0.0253,0.61334 -0.10634,0.10634 -0.18199,-0.0827 -0.1681,-0.42 z m 97.31712,-2.53334 c 0.006,-0.528 0.0782,-0.70525 0.15939,-0.39392 0.0811,0.31136 0.0758,0.74336 -0.0118,0.96 -0.0876,0.21667 -0.15401,-0.0381 -0.14752,-0.56608 z m -96.99712,-0.34666 c 0.0154,-0.3728 0.0912,-0.4486 0.19335,-0.19334 0.0924,0.23101 0.0811,0.50701 -0.0253,0.61334 -0.10634,0.10634 -0.18199,-0.0827 -0.1681,-0.42 z m -61.75999,-1.28 c 0.0154,-0.3728 0.0912,-0.4486 0.19334,-0.19334 0.0925,0.23101 0.0811,0.50701 -0.0253,0.61334 -0.10634,0.10634 -0.18198,-0.0827 -0.1681,-0.42 z m 159.06527,-1.41334 c 0,-0.44 0.0726,-0.62 0.16141,-0.4 0.0888,0.22 0.0888,0.58 0,0.8 -0.0888,0.22 -0.16141,0.04 -0.16141,-0.4 z m -96.98528,-0.18666 c 0.0154,-0.3728 0.0912,-0.4486 0.19335,-0.19334 0.0924,0.23101 0.0811,0.50701 -0.0253,0.61334 -0.10634,0.10634 -0.18199,-0.0827 -0.1681,-0.42 z m 0.32,-2.24 c 0.0154,-0.3728 0.0912,-0.4486 0.19335,-0.19334 0.0925,0.23101 0.0811,0.50701 -0.0253,0.61334 -0.10634,0.10634 -0.18199,-0.0827 -0.1681,-0.42 z m -62.07999,-0.64 c 0.0154,-0.3728 0.0912,-0.4486 0.19334,-0.19334 0.0924,0.23101 0.0811,0.50701 -0.0253,0.61334 -0.10634,0.10634 -0.18198,-0.0827 -0.1681,-0.42 z m 159.06527,-1.09334 c 0,-0.44 0.0726,-0.62 0.16141,-0.4 0.0888,0.22 0.0888,0.58 0,0.8 -0.0888,0.22 -0.16141,0.04 -0.16141,-0.4 z m -96.66528,-1.14666 c 0.0154,-0.3728 0.0912,-0.4486 0.19335,-0.19334 0.0924,0.23101 0.0811,0.50701 -0.0253,0.61334 -0.10634,0.10634 -0.18199,-0.0827 -0.1681,-0.42 z m 96.99712,-3.49334 c 0.006,-0.528 0.0782,-0.70525 0.15939,-0.39392 0.0811,0.31136 0.0758,0.74336 -0.0118,0.96 -0.0877,0.21667 -0.15401,-0.0381 -0.14752,-0.56608 z m -229.15711,-0.34666 c 0.0154,-0.3728 0.0912,-0.4486 0.19334,-0.19334 0.0925,0.23101 0.0811,0.50701 -0.0253,0.61334 -0.10633,0.10634 -0.18198,-0.0827 -0.16809,-0.42 z m 132.82527,-2.69334 c 0,-0.44 0.0726,-0.62 0.16141,-0.4 0.0888,0.22 0.0888,0.58 0,0.8 -0.0888,0.22 -0.16141,0.04 -0.16141,-0.4 z m 96.67664,-1.28 c 0,-0.792 0.0624,-1.116 0.13866,-0.72 0.0763,0.396 0.0763,1.044 0,1.44 -0.0763,0.396 -0.13866,0.072 -0.13866,-0.72 z m -229.50191,0.13334 c 0.0154,-0.3728 0.0912,-0.4486 0.19334,-0.19334 0.0925,0.23101 0.0811,0.50701 -0.0253,0.61334 -0.10633,0.10634 -0.18198,-0.0827 -0.16809,-0.42 z m 133.14527,-1.73334 c 0,-0.44 0.0726,-0.62 0.16141,-0.4 0.0888,0.22 0.0888,0.58 0,0.8 -0.0888,0.22 -0.16141,0.04 -0.16141,-0.4 z m 0.32,-4.16 c 0,-0.44 0.0726,-0.62 0.16141,-0.4 0.0888,0.22 0.0888,0.58 0,0.8 -0.0888,0.22 -0.16141,0.04 -0.16141,-0.4 z m -63.70527,-0.18666 c 0.0154,-0.3728 0.0912,-0.4486 0.19334,-0.19334 0.0924,0.23101 0.0811,0.50701 -0.0253,0.61334 -0.10634,0.10634 -0.18198,-0.0827 -0.1681,-0.42 z m -135.90989,-5.25334 c 0,-1.672 0.0539,-2.356 0.11985,-1.52 0.0659,0.836 0.0659,2.204 0,3.04 -0.0659,0.836 -0.11985,0.152 -0.11985,-1.52 z m 135.58989,0.77334 c 0.0154,-0.3728 0.0912,-0.4486 0.19334,-0.19334 0.0925,0.23101 0.0811,0.50701 -0.0253,0.61334 -0.10634,0.10634 -0.18198,-0.0827 -0.1681,-0.42 z m 64.02527,-0.13334 c 0,-0.44 0.0726,-0.62 0.16141,-0.4 0.0888,0.22 0.0888,0.58 0,0.8 -0.0888,0.22 -0.16141,0.04 -0.16141,-0.4 z m -0.32,-4.16 c 0,-0.44 0.0726,-0.62 0.16141,-0.4 0.0888,0.22 0.0888,0.58 0,0.8 -0.0888,0.22 -0.16141,0.04 -0.16141,-0.4 z m 96.35664,-1.92 c 0,-0.792 0.0624,-1.116 0.13866,-0.72 0.0763,0.396 0.0763,1.044 0,1.44 -0.0763,0.396 -0.13866,0.072 -0.13866,-0.72 z m -96.67664,-0.96 c 0,-0.44 0.0726,-0.62 0.16141,-0.4 0.0888,0.22 0.0888,0.58 0,0.8 -0.0888,0.22 -0.16141,0.04 -0.16141,-0.4 z m 96.33184,-3.36 c 0.006,-0.528 0.0782,-0.70526 0.15939,-0.39392 0.0811,0.31136 0.0758,0.74336 -0.0118,0.96 -0.0877,0.21667 -0.15401,-0.0381 -0.14752,-0.56608 z m -96.67712,-0.0266 c 0.0154,-0.3728 0.0912,-0.44861 0.19335,-0.19334 0.0924,0.231 0.0811,0.507 -0.0253,0.61334 -0.10634,0.10634 -0.18199,-0.0827 -0.1681,-0.42 z m -0.32,-3.20001 c 0.0154,-0.37278 0.0912,-0.44861 0.19335,-0.19333 0.0924,0.23099 0.0811,0.507 -0.0253,0.61333 -0.10634,0.10633 -0.18199,-0.0827 -0.1681,-0.42 z m 96.64,-1.28 c 0.0154,-0.37278 0.0912,-0.44861 0.19334,-0.19333 0.0924,0.23099 0.0811,0.507 -0.0253,0.61333 -0.10633,0.10633 -0.18198,-0.0827 -0.16809,-0.42 z m -96.96,-1.6 c 0.0154,-0.37278 0.0912,-0.44861 0.19335,-0.19333 0.0925,0.23099 0.0811,0.507 -0.0253,0.61333 -0.10634,0.10633 -0.18199,-0.0827 -0.1681,-0.42 z m -0.32,-2.24 c 0.0154,-0.37278 0.0912,-0.44861 0.19335,-0.19333 0.0924,0.23099 0.0811,0.507 -0.0253,0.61333 -0.10634,0.10633 -0.18199,-0.0827 -0.1681,-0.42 z m 96.98528,-0.13343 c 0,-0.44 0.0726,-0.62 0.16141,-0.4 0.0888,0.22 0.0888,0.58 0,0.8 -0.0888,0.22 -0.16141,0.04 -0.16141,-0.4 z m -0.30816,-3.04 c 0.006,-0.528 0.0782,-0.70526 0.15939,-0.39391 0.0811,0.31135 0.0758,0.74335 -0.0118,0.96 -0.0876,0.21665 -0.15401,-0.0381 -0.14752,-0.56609 z m -97.31712,-2.58667 c 0.0154,-0.37278 0.0912,-0.4486 0.19335,-0.19333 0.0924,0.231 0.0811,0.507 -0.0253,0.61333 -0.10634,0.10634 -0.18199,-0.0827 -0.1681,-0.42 z m -0.29472,-2.37333 c 0,-0.44 0.0726,-0.62 0.16141,-0.4 0.0888,0.22 0.0888,0.58 0,0.8 -0.0888,0.22 -0.16141,0.04 -0.16141,-0.4 z m -0.34528,-2.10667 c 0.0154,-0.37278 0.0912,-0.4486 0.19335,-0.19333 0.0924,0.231 0.0811,0.507 -0.0253,0.61333 -0.10634,0.10634 -0.18199,-0.0827 -0.1681,-0.42 z m -196.06988,-3.33333 c 0,-1.672 0.0539,-2.356 0.11985,-1.52 0.0659,0.836 0.0659,2.204 0,3.04 -0.0659,0.836 -0.11985,0.152 -0.11985,-1.52 z m 293.02988,1.09333 c 0.0154,-0.37278 0.0912,-0.4486 0.19334,-0.19333 0.0924,0.231 0.0811,0.507 -0.0253,0.61333 -0.10633,0.10634 -0.18198,-0.0827 -0.16809,-0.42 z m -97.28,-0.32 c 0.0154,-0.37278 0.0912,-0.4486 0.19335,-0.19333 0.0924,0.231 0.0811,0.507 -0.0253,0.61333 -0.10634,0.10634 -0.18199,-0.0827 -0.1681,-0.42 z m 96.98528,-1.73333 c 0,-0.44 0.0726,-0.62 0.16141,-0.4 0.0888,0.22 0.0888,0.58 0,0.8 -0.0888,0.22 -0.16141,0.04 -0.16141,-0.4 z m -0.34528,-2.74667 c 0.0154,-0.37278 0.0912,-0.4486 0.19334,-0.19333 0.0924,0.231 0.0811,0.507 -0.0253,0.61333 -0.10633,0.10634 -0.18198,-0.0827 -0.16809,-0.42 z m -0.32,-2.56 c 0.0154,-0.37278 0.0912,-0.4486 0.19334,-0.19333 0.0925,0.231 0.0811,0.507 -0.0253,0.61333 -0.10633,0.10634 -0.18198,-0.0827 -0.16809,-0.42 z m -0.32,-2.24 c 0.0154,-0.37278 0.0912,-0.4486 0.19334,-0.19333 0.0924,0.231 0.0811,0.507 -0.0253,0.61333 -0.10633,0.10634 -0.18198,-0.0827 -0.16809,-0.42 z m -97.6,-1.6 c 0.0154,-0.37278 0.0912,-0.4486 0.19335,-0.19333 0.0924,0.231 0.0811,0.507 -0.0253,0.61333 -0.10634,0.10634 -0.18199,-0.0827 -0.1681,-0.42 z m -0.32,-1.92 c 0.0154,-0.37278 0.0912,-0.4486 0.19335,-0.19333 0.0924,0.231 0.0811,0.507 -0.0253,0.61333 -0.10634,0.10634 -0.18199,-0.0827 -0.1681,-0.42 z m 96.64,-5.12 c 0.0154,-0.37278 0.0912,-0.4486 0.19334,-0.19333 0.0924,0.231 0.0811,0.507 -0.0253,0.61333 -0.10633,0.10634 -0.18198,-0.0827 -0.16809,-0.42 z m -97.6,-1.28 c 0.0154,-0.37278 0.0912,-0.4486 0.19335,-0.19333 0.0924,0.231 0.0811,0.507 -0.0253,0.61333 -0.10634,0.10634 -0.18199,-0.0827 -0.1681,-0.42 z m 96.32,-6.08 c 0.0154,-0.37278 0.0912,-0.4486 0.19334,-0.19333 0.0924,0.231 0.0811,0.507 -0.0253,0.61333 -0.10633,0.10634 -0.18198,-0.0827 -0.16809,-0.42 z m -473.70523,-3.86526 c 0.22,-0.0888 0.58,-0.0888 0.8,0 0.22,0.0888 0.04,0.16141 -0.4,0.16141 -0.44,0 -0.62,-0.0726 -0.4,-0.16141 z m 184.83535,-3.30807 c 0,-1.672 0.0539,-2.356 0.11985,-1.52 0.0659,0.836 0.0659,2.204 0,3.04 -0.0659,0.836 -0.11985,0.152 -0.11985,-1.52 z m 187.74988,-13.94667 c 0.0154,-0.37278 0.0912,-0.4486 0.19335,-0.19333 0.0924,0.231 0.0811,0.507 -0.0253,0.61333 -0.10634,0.10634 -0.18199,-0.0827 -0.1681,-0.42 z M 362.64733,375.27828 c 0,-1.672 0.0539,-2.356 0.11985,-1.52 0.0659,0.836 0.0659,2.204 0,3.04 -0.0659,0.836 -0.11985,0.152 -0.11985,-1.52 z m -49.15163,-6.30632 c 0.39806,-0.0765 0.97406,-0.0736 1.28,0.006 0.30595,0.0801 -0.0197,0.14272 -0.72373,0.13917 -0.704,-0.004 -0.95432,-0.0691 -0.55627,-0.14563 z m 9.92,-0.32 c 0.39806,-0.0765 0.97406,-0.0736 1.28,0.006 0.30595,0.0801 -0.0197,0.14272 -0.72373,0.13917 -0.704,-0.004 -0.95432,-0.0691 -0.55627,-0.14563 z m 9.75627,-0.31427 c 0.308,-0.0805 0.812,-0.0805 1.12,0 0.308,0.0805 0.056,0.14635 -0.56,0.14635 -0.616,0 -0.868,-0.0659 -0.56,-0.14635 z m 10.08373,-0.32573 c 0.39805,-0.0765 0.97405,-0.0736 1.28,0.006 0.30595,0.0801 -0.0197,0.14272 -0.72373,0.13917 -0.704,-0.004 -0.95432,-0.0691 -0.55627,-0.14563 z m 9.75627,-0.31427 c 0.308,-0.0805 0.812,-0.0805 1.12,0 0.308,0.0805 0.056,0.14635 -0.56,0.14635 -0.616,0 -0.868,-0.0659 -0.56,-0.14635 z m 27.12,-61.66023 c 0,-0.0665 0.252,-0.31845 0.56,-0.56 0.50754,-0.39804 0.51886,-0.38672 0.12082,0.12082 -0.41804,0.53304 -0.68082,0.70255 -0.68082,0.43918 z m 21.84609,-8.10094 c 0.31135,-0.0811 0.74335,-0.0758 0.96,0.0119 0.21665,0.0876 -0.0381,0.15403 -0.56609,0.14751 -0.528,-0.007 -0.70526,-0.0782 -0.39391,-0.15937 z m 80.25916,-35.48491 c 0.0154,-0.37278 0.0912,-0.4486 0.19334,-0.19333 0.0924,0.231 0.0811,0.507 -0.0253,0.61333 -0.10634,0.10634 -0.18198,-0.0827 -0.1681,-0.42 z m -0.23165,-4.45333 c 0,-1.584 0.0531,-2.27235 0.12022,-1.52965 0.0671,0.74268 0.0679,2.03868 0.003,2.88 -0.0661,0.8413 -0.12105,0.23365 -0.12201,-1.35035 z m 0.23165,-4.50667 c 0.0154,-0.37278 0.0912,-0.4486 0.19334,-0.19333 0.0924,0.231 0.0811,0.507 -0.0253,0.61333 -0.10634,0.10634 -0.18198,-0.0827 -0.1681,-0.42 z m 99.45391,-3.57333 c -0.39801,-0.50754 -0.38672,-0.51886 0.12083,-0.12082 0.53303,0.41804 0.70256,0.68082 0.43917,0.68082 -0.0664,0 -0.31843,-0.252 -0.56,-0.56 z m -3.2,-3.84 c -0.39801,-0.50754 -0.38672,-0.51886 0.12083,-0.12082 0.308,0.24155 0.56,0.49355 0.56,0.56 0,0.26337 -0.26278,0.0939 -0.68083,-0.43918 z m -1.6,-1.92 c -0.39801,-0.50754 -0.38672,-0.51886 0.12083,-0.12082 0.53303,0.41804 0.70256,0.68082 0.43917,0.68082 -0.0664,0 -0.31843,-0.252 -0.56,-0.56 z m -2.22339,-2.56 -0.77578,-0.88 0.88,0.77578 c 0.484,0.42668 0.88,0.82268 0.88,0.88 0,0.25097 -0.25913,0.0467 -0.98422,-0.77578 z m -5.44,-5.44 -0.77578,-0.88 0.88,0.77578 c 0.484,0.42668 0.88,0.82268 0.88,0.88 0,0.25097 -0.25913,0.0467 -0.98422,-0.77578 z m -75.17577,-5.04 c 0.41334,-0.44 0.82355,-0.8 0.91155,-0.8 0.088,0 -0.17821,0.36 -0.59155,0.8 -0.41335,0.44 -0.82355,0.8 -0.91155,0.8 -0.088,0 0.1782,-0.36 0.59155,-0.8 z m 3.52,-3.48082 c 0,-0.0665 0.252,-0.31845 0.56,-0.56 0.50755,-0.39804 0.51885,-0.38672 0.12083,0.12082 -0.41805,0.53304 -0.68083,0.70255 -0.68083,0.43918 z m 20.1,-8.73778 c 0.231,-0.0924 0.507,-0.0811 0.61334,0.0252 0.10634,0.10634 -0.0827,0.18197 -0.42,0.16807 -0.3728,-0.0154 -0.44861,-0.0912 -0.19334,-0.19333 z m 16.96,0 c 0.231,-0.0924 0.507,-0.0811 0.61334,0.0252 0.10634,0.10634 -0.0827,0.18197 -0.42,0.16807 -0.3728,-0.0154 -0.44861,-0.0912 -0.19334,-0.19333 z m -14.72,-0.32 c 0.231,-0.0924 0.507,-0.0811 0.61334,0.0252 0.10634,0.10634 -0.0827,0.18197 -0.42,0.16807 -0.3728,-0.0154 -0.44861,-0.0912 -0.19334,-0.19333 z m 12.48,0 c 0.231,-0.0924 0.507,-0.0811 0.61334,0.0252 0.10634,0.10634 -0.0827,0.18197 -0.42,0.16807 -0.3728,-0.0154 -0.44861,-0.0912 -0.19334,-0.19333 z m -7.54,-0.33451 c 0.66,-0.069 1.74,-0.069 2.4,0 0.66,0.069 0.12,0.12552 -1.2,0.12552 -1.32,0 -1.86,-0.0565 -1.2,-0.12552 z"
         id="path185" /><path
         style="fill:#b9b9b9;fill-opacity:1;stroke-width:0.32"
         d="m 523.87795,728.00129 c 1.18032,-0.0614 3.19632,-0.0618 4.48,0 1.28371,0.0609 0.31802,0.11113 -2.14598,0.11161 -2.464,0 -3.51431,-0.0493 -2.33402,-0.11072 z m -4.60598,-0.3016 c 0.231,-0.0924 0.507,-0.0811 0.61334,0.0253 0.10634,0.10633 -0.0827,0.18198 -0.42,0.16809 -0.3728,-0.0154 -0.44861,-0.0912 -0.19334,-0.19334 z m 13.42,0.007 c 0.22,-0.0888 0.58,-0.0888 0.8,0 0.22,0.0888 0.04,0.16141 -0.4,0.16141 -0.44,0 -0.62,-0.0726 -0.4,-0.16141 z m 13.11465,-3.02778 c 0.21709,-0.21869 0.4753,-0.31702 0.57383,-0.21849 0.0985,0.0985 -0.0791,0.27747 -0.39469,0.39763 -0.45607,0.17366 -0.4928,0.13689 -0.17914,-0.17914 z m 5.44,-2.24 c 0.21709,-0.21869 0.4753,-0.31702 0.57383,-0.21849 0.0985,0.0985 -0.0791,0.27747 -0.39469,0.39763 -0.45607,0.17366 -0.4928,0.13689 -0.17914,-0.17914 z m 2.56,-1.28 c 0.21709,-0.21869 0.4753,-0.31702 0.57383,-0.21849 0.0985,0.0985 -0.0791,0.27747 -0.39469,0.39763 -0.45607,0.17366 -0.4928,0.13689 -0.17914,-0.17914 z m -55.31548,-1.48029 c -0.39802,-0.50755 -0.38672,-0.51884 0.12083,-0.12083 0.53302,0.41805 0.70256,0.68083 0.43917,0.68083 -0.0664,0 -0.31844,-0.252 -0.56,-0.56 z m -5.26957,-5.28 -0.6096,-0.72 0.72,0.6096 c 0.67661,0.57287 0.86566,0.8304 0.6096,0.8304 -0.0607,0 -0.38474,-0.324 -0.72,-0.72 z m 70.91039,0.27917 c 0,-0.0664 0.252,-0.31843 0.56,-0.56 0.50756,-0.39801 0.51885,-0.38672 0.12084,0.12083 -0.41805,0.53303 -0.68084,0.70256 -0.68084,0.43917 z m 1.6,-1.28 c 0,-0.0664 0.252,-0.31843 0.56,-0.56 0.50756,-0.39801 0.51885,-0.38672 0.12084,0.12083 -0.41805,0.53303 -0.68084,0.70256 -0.68084,0.43917 z m 2.56,-2.27917 c 0.41335,-0.44 0.82356,-0.8 0.91156,-0.8 0.088,0 -0.17821,0.36 -0.59156,0.8 -0.41334,0.44 -0.82355,0.8 -0.91155,0.8 -0.088,0 0.17821,-0.36 0.59155,-0.8 z m 7.04,-7.04 c 0.41335,-0.44 0.82356,-0.8 0.91156,-0.8 0.088,0 -0.17821,0.36 -0.59156,0.8 -0.41334,0.44 -0.82355,0.8 -0.91155,0.8 -0.088,0 0.17821,-0.36 0.59155,-0.8 z m 1.6,-1.88083 c 0,-0.0664 0.252,-0.31843 0.56,-0.56 0.50756,-0.39801 0.51885,-0.38672 0.12084,0.12083 -0.41805,0.53303 -0.68084,0.70256 -0.68084,0.43917 z m 1.6,-1.92 c 0,-0.0664 0.252,-0.31843 0.56,-0.56 0.50756,-0.39801 0.51885,-0.38672 0.12084,0.12083 -0.41805,0.53303 -0.68084,0.70256 -0.68084,0.43917 z m 3.2,-3.84 c 0,-0.0664 0.252,-0.31843 0.56,-0.56 0.50756,-0.39801 0.51885,-0.38672 0.12084,0.12083 -0.41805,0.53303 -0.68084,0.70256 -0.68084,0.43917 z m -99.49474,-4.22582 c 0.0154,-0.3728 0.0912,-0.44861 0.19334,-0.19335 0.0924,0.23101 0.0811,0.50701 -0.0253,0.61335 -0.10634,0.10633 -0.18198,-0.0827 -0.1681,-0.42 z m 0,-7.04 c 0.0154,-0.3728 0.0912,-0.44861 0.19334,-0.19335 0.0924,0.23101 0.0811,0.50701 -0.0253,0.61335 -0.10634,0.10633 -0.18198,-0.0827 -0.1681,-0.42 z m 0.64,-4.16 c 0.0154,-0.3728 0.0912,-0.44861 0.19334,-0.19335 0.0924,0.23101 0.0811,0.50701 -0.0253,0.61335 -0.10634,0.10633 -0.18198,-0.0827 -0.1681,-0.42 z m 2.39532,-7.26714 c 0.12016,-0.31558 0.29911,-0.49318 0.39764,-0.39469 0.0985,0.0985 1.9e-4,0.35674 -0.2185,0.57383 -0.31603,0.31366 -0.3528,0.27693 -0.17914,-0.17914 z m 1.09943,-2.44739 c 0,-0.1656 0.14233,-0.38909 0.31632,-0.49661 0.18141,-0.11213 0.23507,0.0163 0.12579,0.30112 -0.21274,0.55437 -0.44211,0.65578 -0.44211,0.19549 z m -53.76,-14.21971 c 0,-0.0664 0.252,-0.31843 0.56,-0.56 0.50755,-0.39802 0.51885,-0.38672 0.12083,0.12083 -0.41805,0.53302 -0.68083,0.70256 -0.68083,0.43917 z m 178.87999,-5.94029 c 0,-0.1656 0.14234,-0.38909 0.31632,-0.49661 0.18141,-0.11213 0.23508,0.0163 0.1258,0.30112 -0.21274,0.55437 -0.44212,0.65578 -0.44212,0.19549 z m 4.66058,-9.07267 c 0.12016,-0.31559 0.2991,-0.49319 0.39763,-0.39469 0.0985,0.0985 1.9e-4,0.35674 -0.21849,0.57382 -0.31604,0.31367 -0.3528,0.27693 -0.17914,-0.17913 z m -109.94057,-0.34704 c 0,-0.0664 0.252,-0.31843 0.56,-0.56 0.50755,-0.39802 0.51884,-0.38672 0.12083,0.12083 -0.41805,0.53302 -0.68083,0.70256 -0.68083,0.43917 z m 113.46057,-7.01296 c 0.12016,-0.31559 0.2991,-0.49319 0.39763,-0.39469 0.0985,0.0985 1.9e-4,0.35674 -0.21849,0.57382 -0.31604,0.31367 -0.3528,0.27693 -0.17914,-0.17913 z M 355.0957,602.57194 c 0.39805,-0.0765 0.97405,-0.0736 1.28,0.006 0.30595,0.0801 -0.0197,0.14272 -0.72373,0.13917 -0.704,-0.004 -0.95432,-0.0691 -0.55627,-0.14563 z m -9.76373,-0.31424 c 0.308,-0.0805 0.812,-0.0805 1.12,0 0.308,0.0805 0.056,0.14634 -0.56,0.14634 -0.616,0 -0.868,-0.0659 -0.56,-0.14634 z m 17.30759,-2.01942 c 0,-1.32 0.0565,-1.86 0.12552,-1.2 0.069,0.66 0.069,1.74 0,2.4 -0.069,0.66 -0.12552,0.12 -0.12552,-1.2 z m -27.38386,1.69366 c 0.39805,-0.0765 0.97405,-0.0736 1.28,0.006 0.30595,0.0801 -0.0197,0.14272 -0.72373,0.13917 -0.704,-0.004 -0.95432,-0.0691 -0.55627,-0.14563 z m -9.76373,-0.31424 c 0.308,-0.0805 0.812,-0.0805 1.12,0 0.308,0.0805 0.056,0.14634 -0.56,0.14634 -0.616,0 -0.868,-0.0659 -0.56,-0.14634 z m -9.92,-0.32 c 0.308,-0.0805 0.812,-0.0805 1.12,0 0.308,0.0805 0.056,0.14634 -0.56,0.14634 -0.616,0 -0.868,-0.0659 -0.56,-0.14634 z m 222.50057,-9.15321 c 0.12016,-0.31559 0.29911,-0.49319 0.39763,-0.39469 0.0985,0.0985 2e-4,0.35674 -0.21849,0.57382 -0.31603,0.31367 -0.3528,0.27693 -0.17914,-0.17913 z M 362.33413,569.99828 c 6.4e-4,-2.112 0.0524,-2.93437 0.11509,-1.82746 0.0627,1.10688 0.0621,2.83488 -0.001,3.84 -0.0633,1.00509 -0.11457,0.0995 -0.11394,-2.01254 z m 184.22308,-0.34666 c 0.0154,-0.3728 0.0912,-0.4486 0.19335,-0.19334 0.0925,0.23101 0.0811,0.50701 -0.0253,0.61334 -0.10634,0.10634 -0.18199,-0.0827 -0.1681,-0.42 z m 96.64,-0.96 c 0.0154,-0.3728 0.0912,-0.4486 0.19334,-0.19334 0.0924,0.23101 0.0811,0.50701 -0.0253,0.61334 -0.10633,0.10634 -0.18198,-0.0827 -0.16809,-0.42 z m -94.4,-8 c 0.0154,-0.3728 0.0912,-0.4486 0.19335,-0.19334 0.0924,0.23101 0.0811,0.50701 -0.0253,0.61334 -0.10634,0.10634 -0.18199,-0.0827 -0.1681,-0.42 z m 1.30528,-6.21334 c 0,-0.44 0.0726,-0.62 0.16141,-0.4 0.0888,0.22 0.0888,0.58 0,0.8 -0.0888,0.22 -0.16141,0.04 -0.16141,-0.4 z m 96.61472,-0.18666 c 0.0154,-0.3728 0.0912,-0.4486 0.19334,-0.19334 0.0925,0.23101 0.0811,0.50701 -0.0253,0.61334 -0.10633,0.10634 -0.18198,-0.0827 -0.16809,-0.42 z m 1.28,-5.76 c 0.0154,-0.3728 0.0912,-0.4486 0.19334,-0.19334 0.0924,0.23101 0.0811,0.50701 -0.0253,0.61334 -0.10633,0.10634 -0.18198,-0.0827 -0.16809,-0.42 z m -96.64,-0.96 c 0.0154,-0.3728 0.0912,-0.4486 0.19335,-0.19334 0.0924,0.23101 0.0811,0.50701 -0.0253,0.61334 -0.10634,0.10634 -0.18199,-0.0827 -0.1681,-0.42 z m 97.6,-3.84 c 0.0154,-0.3728 0.0912,-0.4486 0.19334,-0.19334 0.0925,0.23101 0.0811,0.50701 -0.0253,0.61334 -0.10633,0.10634 -0.18198,-0.0827 -0.16809,-0.42 z m -96.61472,-1.73334 c 0,-0.44 0.0726,-0.62 0.16141,-0.4 0.0888,0.22 0.0888,0.58 0,0.8 -0.0888,0.22 -0.16141,0.04 -0.16141,-0.4 z m -190.32836,-3.68 c 6.4e-4,-2.112 0.0524,-2.93437 0.11509,-1.82746 0.0627,1.10688 0.0622,2.83488 -10e-4,3.84 -0.0633,1.00509 -0.11457,0.0995 -0.11394,-2.01254 z m 288.22308,-1.30666 c 0.0154,-0.3728 0.0912,-0.4486 0.19334,-0.19334 0.0924,0.23101 0.0811,0.50701 -0.0253,0.61334 -0.10633,0.10634 -0.18198,-0.0827 -0.16809,-0.42 z m -96.64,-2.24 c 0.0154,-0.3728 0.0912,-0.4486 0.19335,-0.19334 0.0924,0.23101 0.0811,0.50701 -0.0253,0.61334 -0.10634,0.10634 -0.18199,-0.0827 -0.1681,-0.42 z m 97.94528,-4.93334 c 0,-0.44 0.0726,-0.62 0.16141,-0.4 0.0888,0.22 0.0888,0.58 0,0.8 -0.0888,0.22 -0.16141,0.04 -0.16141,-0.4 z m -96.98528,-1.14666 c 0.0154,-0.3728 0.0912,-0.4486 0.19335,-0.19334 0.0925,0.23101 0.0811,0.50701 -0.0253,0.61334 -0.10634,0.10634 -0.18199,-0.0827 -0.1681,-0.42 z m 0.34528,-1.41334 c 0,-0.44 0.0726,-0.62 0.16141,-0.4 0.0888,0.22 0.0888,0.58 0,0.8 -0.0888,0.22 -0.16141,0.04 -0.16141,-0.4 z m 97.57472,-3.38666 c 0.0154,-0.3728 0.0912,-0.4486 0.19334,-0.19334 0.0924,0.23101 0.0811,0.50701 -0.0253,0.61334 -0.10633,0.10634 -0.18198,-0.0827 -0.16809,-0.42 z m 0.32,-1.6 c 0.0154,-0.3728 0.0912,-0.4486 0.19334,-0.19334 0.0924,0.23101 0.0811,0.50701 -0.0253,0.61334 -0.10633,0.10634 -0.18198,-0.0827 -0.16809,-0.42 z m -96.92288,-1.25334 c 0.006,-0.528 0.0782,-0.70525 0.1594,-0.39392 0.0811,0.31136 0.0758,0.74336 -0.0118,0.96 -0.0876,0.21667 -0.15402,-0.0381 -0.14752,-0.56608 z m 0.28288,-1.94666 c 0.0154,-0.3728 0.0912,-0.4486 0.19335,-0.19334 0.0924,0.23101 0.0811,0.50701 -0.0253,0.61334 -0.10634,0.10634 -0.18199,-0.0827 -0.1681,-0.42 z m 97.63712,-3.81334 c 0.006,-0.528 0.0782,-0.70525 0.15939,-0.39392 0.0811,0.31136 0.0758,0.74336 -0.0118,0.96 -0.0876,0.21667 -0.15401,-0.0381 -0.14752,-0.56608 z m -96.64,-2.56 c 0.006,-0.528 0.0782,-0.70525 0.1594,-0.39392 0.0811,0.31136 0.0758,0.74336 -0.0118,0.96 -0.0876,0.21667 -0.15402,-0.0381 -0.14752,-0.56608 z m 0.28288,-2.26666 c 0.0154,-0.3728 0.0912,-0.4486 0.19335,-0.19334 0.0925,0.23101 0.0811,0.50701 -0.0253,0.61334 -0.10634,0.10634 -0.18199,-0.0827 -0.1681,-0.42 z m -195.74308,-3.81334 c 6.4e-4,-2.112 0.0524,-2.93437 0.11509,-1.82746 0.0627,1.10688 0.0622,2.83488 -10e-4,3.84 -0.0633,1.00509 -0.11457,0.0995 -0.11394,-2.01254 z m 293.02308,1.25334 c 0.0154,-0.3728 0.0912,-0.4486 0.19334,-0.19334 0.0925,0.23101 0.0811,0.50701 -0.0253,0.61334 -0.10633,0.10634 -0.18198,-0.0827 -0.16809,-0.42 z m 0.36899,-2.37334 c 0,-0.616 0.0659,-0.868 0.14634,-0.56 0.0805,0.308 0.0805,0.812 0,1.12 -0.0805,0.308 -0.14634,0.056 -0.14634,-0.56 z m -97.00899,-0.18666 c 0.0154,-0.3728 0.0912,-0.4486 0.19335,-0.19334 0.0924,0.23101 0.0811,0.50701 -0.0253,0.61334 -0.10634,0.10634 -0.18199,-0.0827 -0.1681,-0.42 z m 0.34528,-1.73334 c 0,-0.44 0.0726,-0.62 0.16141,-0.4 0.0888,0.22 0.0888,0.58 0,0.8 -0.0888,0.22 -0.16141,0.04 -0.16141,-0.4 z m 96.93472,-0.50666 c 0.0154,-0.3728 0.0912,-0.4486 0.19334,-0.19334 0.0924,0.23101 0.0811,0.50701 -0.0253,0.61334 -0.10633,0.10634 -0.18198,-0.0827 -0.16809,-0.42 z m 0.32,-3.52 c 0.0154,-0.3728 0.0912,-0.4486 0.19334,-0.19334 0.0924,0.23101 0.0811,0.50701 -0.0253,0.61334 -0.10633,0.10634 -0.18198,-0.0827 -0.16809,-0.42 z m 0.35712,-3.49334 c 0.006,-0.528 0.0782,-0.70525 0.15939,-0.39392 0.0811,0.31136 0.0758,0.74336 -0.0118,0.96 -0.0876,0.21667 -0.15401,-0.0381 -0.14752,-0.56608 z m -96.64,-0.32 c 0.006,-0.528 0.0782,-0.70525 0.1594,-0.39392 0.0811,0.31136 0.0758,0.74336 -0.0118,0.96 -0.0876,0.21667 -0.15402,-0.0381 -0.14752,-0.56608 z m 0.30816,-2.4 c 0,-0.44 0.0726,-0.62 0.16141,-0.4 0.0888,0.22 0.0888,0.58 0,0.8 -0.0888,0.22 -0.16141,0.04 -0.16141,-0.4 z m 96.66371,-0.32 c 0,-0.616 0.0659,-0.868 0.14634,-0.56 0.0805,0.308 0.0805,0.812 0,1.12 -0.0805,0.308 -0.14634,0.056 -0.14634,-0.56 z m -158.76898,-2.42666 c 0.0154,-0.3728 0.0912,-0.4486 0.19334,-0.19334 0.0924,0.23101 0.0811,0.50701 -0.0253,0.61334 -0.10634,0.10634 -0.18198,-0.0827 -0.1681,-0.42 z m 62.39999,-0.32 c 0.0154,-0.3728 0.0912,-0.4486 0.19335,-0.19334 0.0924,0.23101 0.0811,0.50701 -0.0253,0.61334 -0.10634,0.10634 -0.18199,-0.0827 -0.1681,-0.42 z m -132.47999,-0.32 c 0.0154,-0.3728 0.0912,-0.4486 0.19334,-0.19334 0.0924,0.23101 0.0811,0.50701 -0.0253,0.61334 -0.10633,0.10634 -0.18198,-0.0827 -0.16809,-0.42 z m 229.11999,-0.64 c 0.0154,-0.3728 0.0912,-0.4486 0.19334,-0.19334 0.0924,0.23101 0.0811,0.50701 -0.0253,0.61334 -0.10633,0.10634 -0.18198,-0.0827 -0.16809,-0.42 z m -96.32,-2.56 c 0.0154,-0.3728 0.0912,-0.4486 0.19335,-0.19334 0.0924,0.23101 0.0811,0.50701 -0.0253,0.61334 -0.10634,0.10634 -0.18199,-0.0827 -0.1681,-0.42 z m -132.47999,-0.32 c 0.0154,-0.3728 0.0912,-0.4486 0.19334,-0.19334 0.0925,0.23101 0.0811,0.50701 -0.0253,0.61334 -0.10633,0.10634 -0.18198,-0.0827 -0.16809,-0.42 z m 132.85545,-1.89334 c 0.004,-0.704 0.0691,-0.95434 0.14563,-0.55626 0.0765,0.39805 0.0736,0.97405 -0.006,1.28 -0.0801,0.30592 -0.14272,-0.0198 -0.13917,-0.72374 z m 96.30166,-0.32 c 0.006,-0.528 0.0782,-0.70525 0.15939,-0.39392 0.0811,0.31136 0.0758,0.74336 -0.0118,0.96 -0.0877,0.21667 -0.15401,-0.0381 -0.14752,-0.56608 z m -96.01184,-3.04 c 0,-0.44 0.0726,-0.62 0.16141,-0.4 0.0888,0.22 0.0888,0.58 0,0.8 -0.0888,0.22 -0.16141,0.04 -0.16141,-0.4 z m -133.14527,-0.50666 c 0.0154,-0.3728 0.0912,-0.4486 0.19334,-0.19334 0.0925,0.23101 0.0811,0.50701 -0.0253,0.61334 -0.10633,0.10634 -0.18198,-0.0827 -0.16809,-0.42 z m 229.48898,-1.41334 c 0,-0.616 0.0659,-0.868 0.14634,-0.56 0.0805,0.308 0.0805,0.812 0,1.12 -0.0805,0.308 -0.14634,0.056 -0.14634,-0.56 z m -229.80898,-2.10666 c 0.0154,-0.3728 0.0912,-0.4486 0.19334,-0.19334 0.0924,0.23101 0.0811,0.50701 -0.0253,0.61334 -0.10633,0.10634 -0.18198,-0.0827 -0.16809,-0.42 z m 133.75999,-0.32 c 0.0154,-0.3728 0.0912,-0.4486 0.19335,-0.19334 0.0924,0.23101 0.0811,0.50701 -0.0253,0.61334 -0.10634,0.10634 -0.18199,-0.0827 -0.1681,-0.42 z m -63.67999,-0.32 c 0.0154,-0.3728 0.0912,-0.4486 0.19334,-0.19334 0.0924,0.23101 0.0811,0.50701 -0.0253,0.61334 -0.10634,0.10634 -0.18198,-0.0827 -0.1681,-0.42 z m 63.67999,-6.72 c 0.0154,-0.3728 0.0912,-0.4486 0.19335,-0.19334 0.0924,0.23101 0.0811,0.50701 -0.0253,0.61334 -0.10634,0.10634 -0.18199,-0.0827 -0.1681,-0.42 z m 96.09939,-1.87008 c -0.0964,-0.2512 -0.1216,-0.7912 -0.056,-1.2 0.0877,-0.54678 0.16198,-0.42608 0.28106,0.45674 0.16755,1.24237 0.0789,1.53523 -0.22503,0.74326 z m -295.68247,-4.18326 c 6.4e-4,-2.112 0.0524,-2.93437 0.11509,-1.82746 0.0627,1.10688 0.0622,2.83488 -10e-4,3.84 -0.0633,1.00509 -0.11457,0.0995 -0.11394,-2.01254 z m 199.28836,1.76 c 0,-0.44 0.0726,-0.62 0.16141,-0.4 0.0888,0.22 0.0888,0.58 0,0.8 -0.0888,0.22 -0.16141,0.04 -0.16141,-0.4 z m -0.28982,-3.36 c 0.004,-0.704 0.0691,-0.95434 0.14563,-0.55626 0.0765,0.39805 0.0736,0.97405 -0.006,1.28 -0.0801,0.30592 -0.14272,-0.0198 -0.13917,-0.72374 z m 96.31353,0.16 c 0,-0.616 0.0659,-0.868 0.14634,-0.56 0.0805,0.308 0.0805,0.812 0,1.12 -0.0805,0.308 -0.14634,0.056 -0.14634,-0.56 z m -96.68899,-2.74667 c 0.0154,-0.37278 0.0912,-0.4486 0.19335,-0.19333 0.0924,0.231 0.0811,0.507 -0.0253,0.61333 -0.10634,0.10635 -0.18199,-0.0827 -0.1681,-0.42 z m 96.34528,-2.37333 c 0,-0.44 0.0726,-0.62 0.16141,-0.4 0.0888,0.22 0.0888,0.58 0,0.8 -0.0888,0.22 -0.16141,0.04 -0.16141,-0.4 z m -96.66528,-0.82667 c 0.0154,-0.37278 0.0912,-0.4486 0.19335,-0.19333 0.0924,0.231 0.0811,0.507 -0.0253,0.61333 -0.10634,0.10634 -0.18199,-0.0827 -0.1681,-0.42 z m 96.36899,-2.69333 c 0,-0.616 0.0659,-0.868 0.14634,-0.56 0.0805,0.308 0.0805,0.812 0,1.12 -0.0805,0.308 -0.14634,0.056 -0.14634,-0.56 z m -96.66371,-0.32 c 0,-0.44 0.0726,-0.62 0.16141,-0.4 0.0888,0.22 0.0888,0.58 0,0.8 -0.0888,0.22 -0.16141,0.04 -0.16141,-0.4 z m -0.29628,-2.56 c 0,-0.616 0.0659,-0.868 0.14633,-0.56 0.0805,0.308 0.0805,0.812 0,1.12 -0.0805,0.308 -0.14633,0.056 -0.14633,-0.56 z m 96.62812,-0.16 c 0.006,-0.528 0.0782,-0.70526 0.15939,-0.39391 0.0811,0.31135 0.0758,0.74335 -0.0118,0.96 -0.0876,0.21665 -0.15401,-0.0381 -0.14752,-0.56609 z m -0.35712,-3.86667 c 0.0154,-0.37278 0.0912,-0.4486 0.19334,-0.19333 0.0924,0.231 0.0811,0.507 -0.0253,0.61333 -0.10633,0.10634 -0.18198,-0.0827 -0.16809,-0.42 z m -0.32,-3.2 c 0.0154,-0.37278 0.0912,-0.4486 0.19334,-0.19333 0.0924,0.231 0.0811,0.507 -0.0253,0.61333 -0.10633,0.10634 -0.18198,-0.0827 -0.16809,-0.42 z m -96.96,-0.64 c 0.0154,-0.37278 0.0912,-0.4486 0.19335,-0.19333 0.0924,0.231 0.0811,0.507 -0.0253,0.61333 -0.10634,0.10634 -0.18199,-0.0827 -0.1681,-0.42 z m 96.68899,-1.73333 c 0,-0.616 0.0659,-0.868 0.14634,-0.56 0.0805,0.308 0.0805,0.812 0,1.12 -0.0805,0.308 -0.14634,0.056 -0.14634,-0.56 z m -97.00899,-0.18667 c 0.0154,-0.37278 0.0912,-0.4486 0.19335,-0.19333 0.0924,0.231 0.0811,0.507 -0.0253,0.61333 -0.10634,0.10634 -0.18199,-0.0827 -0.1681,-0.42 z m 96.64,-2.24 c 0.0154,-0.37278 0.0912,-0.4486 0.19334,-0.19333 0.0925,0.231 0.0811,0.507 -0.0253,0.61333 -0.10633,0.10634 -0.18198,-0.0827 -0.16809,-0.42 z m -97.28,-2.56 c 0.0154,-0.37278 0.0912,-0.4486 0.19335,-0.19333 0.0925,0.231 0.0811,0.507 -0.0253,0.61333 -0.10634,0.10634 -0.18199,-0.0827 -0.1681,-0.42 z m -195.42308,-4.13333 c 6.4e-4,-2.112 0.0524,-2.93436 0.11509,-1.82746 0.0627,1.1069 0.0622,2.8349 -10e-4,3.84 -0.0633,1.0051 -0.11457,0.0995 -0.11394,-2.01254 z m 195.1402,1.92 c 0.006,-0.528 0.0782,-0.70526 0.1594,-0.39391 0.0811,0.31135 0.0758,0.74335 -0.0118,0.96 -0.0876,0.21665 -0.15402,-0.0381 -0.14752,-0.56609 z m 96.62816,-2.72 c 0,-0.44 0.0726,-0.62 0.16141,-0.4 0.0888,0.22 0.0888,0.58 0,0.8 -0.0888,0.22 -0.16141,0.04 -0.16141,-0.4 z m -0.34528,-2.42667 c 0.0154,-0.37278 0.0912,-0.4486 0.19334,-0.19333 0.0924,0.231 0.0811,0.507 -0.0253,0.61333 -0.10633,0.10634 -0.18198,-0.0827 -0.16809,-0.42 z m -97.28,-1.28 c 0.0154,-0.37278 0.0912,-0.4486 0.19335,-0.19333 0.0924,0.231 0.0811,0.507 -0.0253,0.61333 -0.10634,0.10634 -0.18199,-0.0827 -0.1681,-0.42 z m -0.29472,-2.05333 c 0,-0.44 0.0726,-0.62 0.16141,-0.4 0.0888,0.22 0.0888,0.58 0,0.8 -0.0888,0.22 -0.16141,0.04 -0.16141,-0.4 z m 96.93472,-1.14667 c 0.0154,-0.37278 0.0912,-0.4486 0.19334,-0.19333 0.0924,0.231 0.0811,0.507 -0.0253,0.61333 -0.10633,0.10634 -0.18198,-0.0827 -0.16809,-0.42 z m -0.29472,-1.73333 c 0,-0.44 0.0726,-0.62 0.16141,-0.4 0.0888,0.22 0.0888,0.58 0,0.8 -0.0888,0.22 -0.16141,0.04 -0.16141,-0.4 z m -97.62528,-3.38667 c 0.0154,-0.37278 0.0912,-0.4486 0.19335,-0.19333 0.0924,0.231 0.0811,0.507 -0.0253,0.61333 -0.10634,0.10634 -0.18199,-0.0827 -0.1681,-0.42 z m 96.66528,-2.69333 c 0,-0.44 0.0726,-0.62 0.16141,-0.4 0.0888,0.22 0.0888,0.58 0,0.8 -0.0888,0.22 -0.16141,0.04 -0.16141,-0.4 z m -97.92,-4.8 c 0,-0.44 0.0726,-0.62 0.16141,-0.4 0.0888,0.22 0.0888,0.58 0,0.8 -0.0888,0.22 -0.16141,0.04 -0.16141,-0.4 z m 96.64,-2.24 c 0,-0.44 0.0726,-0.62 0.16141,-0.4 0.0888,0.22 0.0888,0.58 0,0.8 -0.0888,0.22 -0.16141,0.04 -0.16141,-0.4 z m -97.62528,-3.38667 c 0.0154,-0.37278 0.0912,-0.4486 0.19335,-0.19333 0.0924,0.231 0.0811,0.507 -0.0253,0.61333 -0.10634,0.10634 -0.18199,-0.0827 -0.1681,-0.42 z m -0.29472,-1.73333 c 0,-0.44 0.0726,-0.62 0.16141,-0.4 0.0888,0.22 0.0888,0.58 0,0.8 -0.0888,0.22 -0.16141,0.04 -0.16141,-0.4 z m 96.93472,-0.18667 c 0.0154,-0.37278 0.0912,-0.4486 0.19334,-0.19333 0.0924,0.231 0.0811,0.507 -0.0253,0.61333 -0.10633,0.10634 -0.18198,-0.0827 -0.16809,-0.42 z m -286.94308,-3.81333 c 6.4e-4,-2.112 0.0524,-2.93436 0.11509,-1.82746 0.0627,1.1069 0.0621,2.8349 -0.001,3.84 -0.0633,1.0051 -0.11457,0.0995 -0.11394,-2.01254 z m 286.62308,2.53333 c 0.0154,-0.37278 0.0912,-0.4486 0.19334,-0.19333 0.0925,0.231 0.0811,0.507 -0.0253,0.61333 -0.10633,0.10634 -0.18198,-0.0827 -0.16809,-0.42 z m -97.6,-3.84 c 0.0154,-0.37278 0.0912,-0.4486 0.19335,-0.19333 0.0924,0.231 0.0811,0.507 -0.0253,0.61333 -0.10634,0.10634 -0.18199,-0.0827 -0.1681,-0.42 z m 96.64,-0.96 c 0.0154,-0.37278 0.0912,-0.4486 0.19334,-0.19333 0.0924,0.231 0.0811,0.507 -0.0253,0.61333 -0.10633,0.10634 -0.18198,-0.0827 -0.16809,-0.42 z m -1.28,-5.76 c 0.0154,-0.37278 0.0912,-0.4486 0.19334,-0.19333 0.0925,0.231 0.0811,0.507 -0.0253,0.61333 -0.10633,0.10634 -0.18198,-0.0827 -0.16809,-0.42 z m -96.64,-0.32 c 0.0154,-0.37278 0.0912,-0.4486 0.19335,-0.19333 0.0924,0.231 0.0811,0.507 -0.0253,0.61333 -0.10634,0.10634 -0.18199,-0.0827 -0.1681,-0.42 z m -1.28,-6.08 c 0.0154,-0.37278 0.0912,-0.4486 0.19335,-0.19333 0.0924,0.231 0.0811,0.507 -0.0253,0.61333 -0.10634,0.10634 -0.18199,-0.0827 -0.1681,-0.42 z m 95.68,-3.2 c 0.0154,-0.37278 0.0912,-0.4486 0.19334,-0.19333 0.0924,0.231 0.0811,0.507 -0.0253,0.61333 -0.10633,0.10634 -0.18198,-0.0827 -0.16809,-0.42 z m -1.28,-4.8 c 0.0154,-0.37278 0.0912,-0.4486 0.19334,-0.19333 0.0924,0.231 0.0811,0.507 -0.0253,0.61333 -0.10633,0.10634 -0.18198,-0.0827 -0.16809,-0.42 z m -280.56282,-7.49333 c 0,-1.144 0.0581,-1.612 0.12907,-1.04 0.071,0.572 0.071,1.508 0,2.08 -0.071,0.572 -0.12907,0.104 -0.12907,-1.04 z m 278.32282,-0.82667 c 0.0154,-0.37278 0.0912,-0.4486 0.19334,-0.19333 0.0925,0.231 0.0811,0.507 -0.0253,0.61333 -0.10633,0.10634 -0.18198,-0.0827 -0.16809,-0.42 z m -325.38524,-0.67392 c 0.308,-0.0805 0.812,-0.0805 1.12,0 0.308,0.0805 0.056,0.14635 -0.56,0.14635 -0.616,0 -0.868,-0.0659 -0.56,-0.14635 z m 9.92,-0.32 c 0.308,-0.0805 0.812,-0.0805 1.12,0 0.308,0.0805 0.056,0.14635 -0.56,0.14635 -0.616,0 -0.868,-0.0659 -0.56,-0.14635 z m 9.76373,-0.32573 c 0.39805,-0.0765 0.97405,-0.0736 1.28,0.006 0.30595,0.0801 -0.0197,0.14272 -0.72373,0.13917 -0.704,-0.004 -0.95432,-0.0691 -0.55627,-0.14563 z m 10.07627,-0.31427 c 0.308,-0.0805 0.812,-0.0805 1.12,0 0.308,0.0805 0.056,0.14635 -0.56,0.14635 -0.616,0 -0.868,-0.0659 -0.56,-0.14635 z m 9.76373,-0.32573 c 0.39805,-0.0765 0.97405,-0.0736 1.28,0.006 0.30595,0.0801 -0.0197,0.14272 -0.72373,0.13917 -0.704,-0.004 -0.95432,-0.0691 -0.55627,-0.14563 z m 284.58151,-2.52035 c 0.0154,-0.37278 0.0912,-0.4486 0.19334,-0.19333 0.0924,0.231 0.0811,0.507 -0.0253,0.61333 -0.10633,0.10634 -0.18198,-0.0827 -0.16809,-0.42 z m -99.0784,-4.95462 c -0.11603,-0.18771 -0.1423,-0.40992 -0.0584,-0.4938 0.0839,-0.0839 0.23779,0.0697 0.34202,0.34129 0.21638,0.56387 0.032,0.66306 -0.28359,0.15251 z m 90.93267,-19.67108 c -0.30877,-0.8047 -0.21769,-1.01234 0.15955,-0.36363 0.18679,0.3212 0.2722,0.65141 0.1898,0.7338 -0.0824,0.0824 -0.23959,-0.0842 -0.34935,-0.37017 z m -5.81267,-14.88892 c -0.11603,-0.18771 -0.1423,-0.40992 -0.0584,-0.4938 0.0839,-0.0839 0.23779,0.0697 0.34201,0.34129 0.21639,0.56387 0.032,0.66306 -0.28358,0.15251 z m -111.22768,-9.81871 c -0.39801,-0.50754 -0.38672,-0.51886 0.12084,-0.12082 0.308,0.24155 0.56,0.49355 0.56,0.56 0,0.26337 -0.26279,0.0939 -0.68084,-0.43918 z m -81.59999,-5.44 c -0.39802,-0.50754 -0.38672,-0.51886 0.12083,-0.12082 0.308,0.24155 0.56,0.49355 0.56,0.56 0,0.26337 -0.26278,0.0939 -0.68083,-0.43918 z m 75.83999,-2.24 c -0.39801,-0.50754 -0.38672,-0.51886 0.12084,-0.12082 0.308,0.24155 0.56,0.49355 0.56,0.56 0,0.26337 -0.26279,0.0939 -0.68084,-0.43918 z m -26.49391,-46.66667 c 0.0154,-0.37278 0.0912,-0.4486 0.19334,-0.19333 0.0924,0.231 0.0811,0.507 -0.0253,0.61333 -0.10634,0.10634 -0.18198,-0.0827 -0.1681,-0.42 z m 107.13391,-1.33333 c -0.39801,-0.50754 -0.38672,-0.51886 0.12083,-0.12082 0.53303,0.41804 0.70256,0.68082 0.43917,0.68082 -0.0664,0 -0.31843,-0.252 -0.56,-0.56 z m -107.13391,-5.70667 c 0.0154,-0.37278 0.0912,-0.4486 0.19334,-0.19333 0.0924,0.231 0.0811,0.507 -0.0253,0.61333 -0.10634,0.10634 -0.18198,-0.0827 -0.1681,-0.42 z m 102.33391,-0.69333 c -0.39801,-0.50754 -0.38672,-0.51886 0.12083,-0.12082 0.53303,0.41804 0.70256,0.68082 0.43917,0.68082 -0.0664,0 -0.31843,-0.252 -0.56,-0.56 z m -1.28,-1.6 c -0.39801,-0.50754 -0.38672,-0.51886 0.12083,-0.12082 0.53303,0.41804 0.70256,0.68082 0.43917,0.68082 -0.0664,0 -0.31843,-0.252 -0.56,-0.56 z m -3.84,-4.8 c -0.39801,-0.50754 -0.38672,-0.51886 0.12083,-0.12082 0.53303,0.41804 0.70256,0.68082 0.43917,0.68082 -0.0664,0 -0.31843,-0.252 -0.56,-0.56 z m -1.92,-2.24 c -0.39801,-0.50754 -0.38672,-0.51886 0.12083,-0.12082 0.53303,0.41804 0.70256,0.68082 0.43917,0.68082 -0.0664,0 -0.31843,-0.252 -0.56,-0.56 z m -5.56918,-6.24 -1.90999,-2 2,1.90998 c 1.1,1.05049 2,1.95049 2,2 0,0.23645 -0.3158,-0.0522 -2.09001,-1.90998 z m -82.06998,-2.60082 c 0,-0.0665 0.252,-0.31845 0.56,-0.56 0.50755,-0.39804 0.51885,-0.38672 0.12083,0.12082 -0.41805,0.53304 -0.68083,0.70255 -0.68083,0.43918 z m 77.56959,-1.55918 -0.6096,-0.72 0.72,0.6096 c 0.67661,0.57287 0.86567,0.8304 0.6096,0.8304 -0.0607,0 -0.38473,-0.324 -0.72,-0.72 z m -76.60959,0.27918 c 0,-0.0665 0.252,-0.31845 0.56,-0.56 0.50755,-0.39804 0.51885,-0.38672 0.12083,0.12082 -0.41805,0.53304 -0.68083,0.70255 -0.68083,0.43918 z m 74.51916,-2.03918 c -0.39801,-0.50754 -0.38672,-0.51886 0.12083,-0.12082 0.53303,0.41804 0.70256,0.68082 0.43917,0.68082 -0.0664,0 -0.31843,-0.252 -0.56,-0.56 z m -69.23916,-3.92 c 0.68742,-0.704 1.32189,-1.28 1.40989,-1.28 0.088,0 -0.40247,0.576 -1.08989,1.28 -0.68743,0.704 -1.32189,1.28 -1.40989,1.28 -0.088,0 0.40246,-0.576 1.08989,-1.28 z m 60.46115,-2.09765 c -0.59648,-0.47789 -0.59255,-0.4838 0.0988,-0.14874 0.396,0.1919 0.72,0.41584 0.72,0.49765 0,0.24487 -0.16596,0.17415 -0.81885,-0.34891 z m -50.70115,-4.42811 c 0,-0.0692 0.22348,-0.21152 0.4966,-0.31634 0.2848,-0.10928 0.41325,-0.0556 0.30112,0.12576 -0.1879,0.30407 -0.79772,0.44975 -0.79772,0.19058 z m 37.7,-1.37284 c 0.231,-0.0924 0.507,-0.0811 0.61334,0.0252 0.10634,0.10634 -0.0827,0.18197 -0.42,0.16807 -0.3728,-0.0154 -0.44861,-0.0912 -0.19334,-0.19333 z m -30.08,-1.28 c 0.231,-0.0924 0.507,-0.0811 0.61334,0.0252 0.10634,0.10634 -0.0827,0.18197 -0.42,0.16807 -0.3728,-0.0154 -0.44861,-0.0912 -0.19334,-0.19333 z m 5.1,-0.95333 c 0.22,-0.0888 0.58,-0.0888 0.8,0 0.22,0.0888 0.04,0.16141 -0.4,0.16141 -0.44,0 -0.62,-0.0726 -0.4,-0.16141 z m 14.72,0 c 0.22,-0.0888 0.58,-0.0888 0.8,0 0.22,0.0888 0.04,0.16141 -0.4,0.16141 -0.44,0 -0.62,-0.0726 -0.4,-0.16141 z m -12.46,-0.32667 c 0.231,-0.0924 0.507,-0.0811 0.61334,0.0252 0.10634,0.10634 -0.0827,0.18197 -0.42,0.16807 -0.3728,-0.0154 -0.44861,-0.0912 -0.19334,-0.19333 z m 10.22,0.007 c 0.22,-0.0888 0.58,-0.0888 0.8,0 0.22,0.0888 0.04,0.16141 -0.4,0.16141 -0.44,0 -0.62,-0.0726 -0.4,-0.16141 z"
         id="path183" /><g
         id="g486"
         transform="translate(43.885126,2.6200076)"><path
           style="fill:#b9b9b9;fill-opacity:1;stroke-width:0.32"
           d="m 542.07655,797.31786 c 1.18032,-0.0614 3.19632,-0.0618 4.48,0 1.28371,0.0609 0.31802,0.11113 -2.14598,0.11161 -2.464,0 -3.51431,-0.0493 -2.33402,-0.11072 z m -4.60598,-0.3016 c 0.231,-0.0924 0.507,-0.0811 0.61334,0.0253 0.10634,0.10633 -0.0827,0.18198 -0.42,0.16809 -0.3728,-0.0154 -0.44861,-0.0912 -0.19334,-0.19334 z m 13.42,0.007 c 0.22,-0.0888 0.58,-0.0888 0.8,0 0.22,0.0888 0.04,0.16141 -0.4,0.16141 -0.44,0 -0.62,-0.0726 -0.4,-0.16141 z m 13.11465,-3.02778 c 0.21709,-0.21869 0.4753,-0.31702 0.57383,-0.21849 0.0985,0.0985 -0.0791,0.27747 -0.39469,0.39763 -0.45607,0.17366 -0.4928,0.13689 -0.17914,-0.17914 z m 5.44,-2.24 c 0.21709,-0.21869 0.4753,-0.31702 0.57383,-0.21849 0.0985,0.0985 -0.0791,0.27747 -0.39469,0.39763 -0.45607,0.17366 -0.4928,0.13689 -0.17914,-0.17914 z m 2.56,-1.28 c 0.21709,-0.21869 0.4753,-0.31702 0.57383,-0.21849 0.0985,0.0985 -0.0791,0.27747 -0.39469,0.39763 -0.45607,0.17366 -0.4928,0.13689 -0.17914,-0.17914 z m -55.31548,-1.48029 c -0.39802,-0.50755 -0.38672,-0.51884 0.12083,-0.12083 0.53302,0.41805 0.70256,0.68083 0.43917,0.68083 -0.0664,0 -0.31844,-0.252 -0.56,-0.56 z m -5.26957,-5.28 -0.6096,-0.72 0.72,0.6096 c 0.67661,0.57287 0.86566,0.8304 0.6096,0.8304 -0.0607,0 -0.38474,-0.324 -0.72,-0.72 z m 70.91039,0.27917 c 0,-0.0664 0.252,-0.31843 0.56,-0.56 0.50756,-0.39801 0.51885,-0.38672 0.12084,0.12083 -0.41805,0.53303 -0.68084,0.70256 -0.68084,0.43917 z m 1.6,-1.28 c 0,-0.0664 0.252,-0.31843 0.56,-0.56 0.50756,-0.39801 0.51885,-0.38672 0.12084,0.12083 -0.41805,0.53303 -0.68084,0.70256 -0.68084,0.43917 z m 2.56,-2.27917 c 0.41335,-0.44 0.82356,-0.8 0.91156,-0.8 0.088,0 -0.17821,0.36 -0.59156,0.8 -0.41334,0.44 -0.82355,0.8 -0.91155,0.8 -0.088,0 0.17821,-0.36 0.59155,-0.8 z m 7.04,-7.04 c 0.41335,-0.44 0.82356,-0.8 0.91156,-0.8 0.088,0 -0.17821,0.36 -0.59156,0.8 -0.41334,0.44 -0.82355,0.8 -0.91155,0.8 -0.088,0 0.17821,-0.36 0.59155,-0.8 z m 1.6,-1.88083 c 0,-0.0664 0.252,-0.31843 0.56,-0.56 0.50756,-0.39801 0.51885,-0.38672 0.12084,0.12083 -0.41805,0.53303 -0.68084,0.70256 -0.68084,0.43917 z m 1.6,-1.92 c 0,-0.0664 0.252,-0.31843 0.56,-0.56 0.50756,-0.39801 0.51885,-0.38672 0.12084,0.12083 -0.41805,0.53303 -0.68084,0.70256 -0.68084,0.43917 z m 3.2,-3.84 c 0,-0.0664 0.252,-0.31843 0.56,-0.56 0.50756,-0.39801 0.51885,-0.38672 0.12084,0.12083 -0.41805,0.53303 -0.68084,0.70256 -0.68084,0.43917 z m -99.49474,-4.22582 c 0.0154,-0.3728 0.0912,-0.44861 0.19334,-0.19335 0.0924,0.23101 0.0811,0.50701 -0.0253,0.61335 -0.10634,0.10633 -0.18198,-0.0827 -0.1681,-0.42 z m 0,-7.04 c 0.0154,-0.3728 0.0912,-0.44861 0.19334,-0.19335 0.0924,0.23101 0.0811,0.50701 -0.0253,0.61335 -0.10634,0.10633 -0.18198,-0.0827 -0.1681,-0.42 z m 0.64,-4.16 c 0.0154,-0.3728 0.0912,-0.44861 0.19334,-0.19335 0.0924,0.23101 0.0811,0.50701 -0.0253,0.61335 -0.10634,0.10633 -0.18198,-0.0827 -0.1681,-0.42 z m 2.39532,-7.26714 c 0.12016,-0.31558 0.29911,-0.49318 0.39764,-0.39469 0.0985,0.0985 1.9e-4,0.35674 -0.2185,0.57383 -0.31603,0.31366 -0.3528,0.27693 -0.17914,-0.17914 z m 1.09943,-2.44739 c 0,-0.1656 0.14233,-0.38909 0.31632,-0.49661 0.18141,-0.11213 0.23507,0.0163 0.12579,0.30112 -0.21274,0.55437 -0.44211,0.65578 -0.44211,0.19549 z m -53.76,-14.21971 c 0,-0.0664 0.252,-0.31843 0.56,-0.56 0.50755,-0.39802 0.51885,-0.38672 0.12083,0.12083 -0.41805,0.53302 -0.68083,0.70256 -0.68083,0.43917 z m 178.87999,-5.94029 c 0,-0.1656 0.14234,-0.38909 0.31632,-0.49661 0.18141,-0.11213 0.23508,0.0163 0.1258,0.30112 -0.21274,0.55437 -0.44212,0.65578 -0.44212,0.19549 z m 4.66058,-9.07267 c 0.12016,-0.31559 0.2991,-0.49319 0.39763,-0.39469 0.0985,0.0985 1.9e-4,0.35674 -0.21849,0.57382 -0.31604,0.31367 -0.3528,0.27693 -0.17914,-0.17913 z M 524.41057,711.0343 c 0,-0.0664 0.252,-0.31843 0.56,-0.56 0.50755,-0.39802 0.51884,-0.38672 0.12083,0.12083 -0.41805,0.53302 -0.68083,0.70256 -0.68083,0.43917 z m 113.46057,-7.01296 c 0.12016,-0.31559 0.2991,-0.49319 0.39763,-0.39469 0.0985,0.0985 1.9e-4,0.35674 -0.21849,0.57382 -0.31604,0.31367 -0.3528,0.27693 -0.17914,-0.17913 z M 373.2943,671.88851 c 0.39805,-0.0765 0.97405,-0.0736 1.28,0.006 0.30595,0.0801 -0.0197,0.14272 -0.72373,0.13917 -0.704,-0.004 -0.95432,-0.0691 -0.55627,-0.14563 z m -9.76373,-0.31424 c 0.308,-0.0805 0.812,-0.0805 1.12,0 0.308,0.0805 0.056,0.14634 -0.56,0.14634 -0.616,0 -0.868,-0.0659 -0.56,-0.14634 z m 17.30759,-2.01942 c 0,-1.32 0.0565,-1.86 0.12552,-1.2 0.069,0.66 0.069,1.74 0,2.4 -0.069,0.66 -0.12552,0.12 -0.12552,-1.2 z m -27.38386,1.69366 c 0.39805,-0.0765 0.97405,-0.0736 1.28,0.006 0.30595,0.0801 -0.0197,0.14272 -0.72373,0.13917 -0.704,-0.004 -0.95432,-0.0691 -0.55627,-0.14563 z m -9.76373,-0.31424 c 0.308,-0.0805 0.812,-0.0805 1.12,0 0.308,0.0805 0.056,0.14634 -0.56,0.14634 -0.616,0 -0.868,-0.0659 -0.56,-0.14634 z m -9.92,-0.32 c 0.308,-0.0805 0.812,-0.0805 1.12,0 0.308,0.0805 0.056,0.14634 -0.56,0.14634 -0.616,0 -0.868,-0.0659 -0.56,-0.14634 z m 222.50057,-9.15321 c 0.12016,-0.31559 0.29911,-0.49319 0.39763,-0.39469 0.0985,0.0985 2e-4,0.35674 -0.21849,0.57382 -0.31603,0.31367 -0.3528,0.27693 -0.17914,-0.17913 z M 380.53273,639.31485 c 6.4e-4,-2.112 0.0524,-2.93437 0.11509,-1.82746 0.0627,1.10688 0.0621,2.83488 -0.001,3.84 -0.0633,1.00509 -0.11457,0.0995 -0.11394,-2.01254 z m 184.22308,-0.34666 c 0.0154,-0.3728 0.0912,-0.4486 0.19335,-0.19334 0.0924,0.23101 0.0811,0.50701 -0.0253,0.61334 -0.10634,0.10634 -0.18199,-0.0827 -0.1681,-0.42 z m 96.64,-0.96 c 0.0154,-0.3728 0.0912,-0.4486 0.19334,-0.19334 0.0924,0.23101 0.0811,0.50701 -0.0253,0.61334 -0.10633,0.10634 -0.18198,-0.0827 -0.16809,-0.42 z m -94.4,-8 c 0.0154,-0.3728 0.0912,-0.4486 0.19335,-0.19334 0.0924,0.23101 0.0811,0.50701 -0.0253,0.61334 -0.10634,0.10634 -0.18199,-0.0827 -0.1681,-0.42 z m 1.30528,-6.21334 c 0,-0.44 0.0726,-0.62 0.16141,-0.4 0.0888,0.22 0.0888,0.58 0,0.8 -0.0888,0.22 -0.16141,0.04 -0.16141,-0.4 z m 96.61472,-0.18666 c 0.0154,-0.3728 0.0912,-0.4486 0.19334,-0.19334 0.0924,0.23101 0.0811,0.50701 -0.0253,0.61334 -0.10633,0.10634 -0.18198,-0.0827 -0.16809,-0.42 z m 1.28,-5.76 c 0.0154,-0.3728 0.0912,-0.4486 0.19334,-0.19334 0.0924,0.23101 0.0811,0.50701 -0.0253,0.61334 -0.10633,0.10634 -0.18198,-0.0827 -0.16809,-0.42 z m -96.64,-0.96 c 0.0154,-0.3728 0.0912,-0.4486 0.19335,-0.19334 0.0924,0.23101 0.0811,0.50701 -0.0253,0.61334 -0.10634,0.10634 -0.18199,-0.0827 -0.1681,-0.42 z m 97.6,-3.84 c 0.0154,-0.3728 0.0912,-0.4486 0.19334,-0.19334 0.0924,0.23101 0.0811,0.50701 -0.0253,0.61334 -0.10633,0.10634 -0.18198,-0.0827 -0.16809,-0.42 z m -96.61472,-1.73334 c 0,-0.44 0.0726,-0.62 0.16141,-0.4 0.0888,0.22 0.0888,0.58 0,0.8 -0.0888,0.22 -0.16141,0.04 -0.16141,-0.4 z m -190.32836,-3.68 c 6.4e-4,-2.112 0.0524,-2.93437 0.11509,-1.82746 0.0627,1.10688 0.0622,2.83488 -10e-4,3.84 -0.0633,1.00509 -0.11457,0.0995 -0.11394,-2.01254 z m 288.22308,-1.30666 c 0.0154,-0.3728 0.0912,-0.4486 0.19334,-0.19334 0.0924,0.23101 0.0811,0.50701 -0.0253,0.61334 -0.10633,0.10634 -0.18198,-0.0827 -0.16809,-0.42 z m -96.64,-2.24 c 0.0154,-0.3728 0.0912,-0.4486 0.19335,-0.19334 0.0924,0.23101 0.0811,0.50701 -0.0253,0.61334 -0.10634,0.10634 -0.18199,-0.0827 -0.1681,-0.42 z m 97.94528,-4.93334 c 0,-0.44 0.0726,-0.62 0.16141,-0.4 0.0888,0.22 0.0888,0.58 0,0.8 -0.0888,0.22 -0.16141,0.04 -0.16141,-0.4 z m -96.98528,-1.14666 c 0.0154,-0.3728 0.0912,-0.4486 0.19335,-0.19334 0.0924,0.23101 0.0811,0.50701 -0.0253,0.61334 -0.10634,0.10634 -0.18199,-0.0827 -0.1681,-0.42 z m 0.34528,-1.41334 c 0,-0.44 0.0726,-0.62 0.16141,-0.4 0.0888,0.22 0.0888,0.58 0,0.8 -0.0888,0.22 -0.16141,0.04 -0.16141,-0.4 z m 97.57472,-3.38666 c 0.0154,-0.3728 0.0912,-0.4486 0.19334,-0.19334 0.0924,0.23101 0.0811,0.50701 -0.0253,0.61334 -0.10633,0.10634 -0.18198,-0.0827 -0.16809,-0.42 z m 0.32,-1.6 c 0.0154,-0.3728 0.0912,-0.4486 0.19334,-0.19334 0.0924,0.23101 0.0811,0.50701 -0.0253,0.61334 -0.10633,0.10634 -0.18198,-0.0827 -0.16809,-0.42 z m -96.92288,-1.25334 c 0.006,-0.528 0.0782,-0.70525 0.1594,-0.39392 0.0811,0.31136 0.0758,0.74336 -0.0118,0.96 -0.0877,0.21667 -0.15402,-0.0381 -0.14752,-0.56608 z m 0.28288,-1.94666 c 0.0154,-0.3728 0.0912,-0.4486 0.19335,-0.19334 0.0924,0.23101 0.0811,0.50701 -0.0253,0.61334 -0.10634,0.10634 -0.18199,-0.0827 -0.1681,-0.42 z m 97.63712,-3.81334 c 0.006,-0.528 0.0782,-0.70525 0.15939,-0.39392 0.0811,0.31136 0.0758,0.74336 -0.0118,0.96 -0.0877,0.21667 -0.15401,-0.0381 -0.14752,-0.56608 z m -96.64,-2.56 c 0.006,-0.528 0.0782,-0.70525 0.1594,-0.39392 0.0811,0.31136 0.0758,0.74336 -0.0118,0.96 -0.0877,0.21667 -0.15402,-0.0381 -0.14752,-0.56608 z m 0.28288,-2.26666 c 0.0154,-0.3728 0.0912,-0.4486 0.19335,-0.19334 0.0924,0.23101 0.0811,0.50701 -0.0253,0.61334 -0.10634,0.10634 -0.18199,-0.0827 -0.1681,-0.42 z m -195.74308,-3.81334 c 6.4e-4,-2.112 0.0524,-2.93437 0.11509,-1.82746 0.0627,1.10688 0.0622,2.83488 -10e-4,3.84 -0.0633,1.00509 -0.11457,0.0995 -0.11394,-2.01254 z m 293.02308,1.25334 c 0.0154,-0.3728 0.0912,-0.4486 0.19334,-0.19334 0.0924,0.23101 0.0811,0.50701 -0.0253,0.61334 -0.10633,0.10634 -0.18198,-0.0827 -0.16809,-0.42 z m 0.36899,-2.37334 c 0,-0.616 0.0659,-0.868 0.14634,-0.56 0.0805,0.308 0.0805,0.812 0,1.12 -0.0805,0.308 -0.14634,0.056 -0.14634,-0.56 z m -97.00899,-0.18666 c 0.0154,-0.3728 0.0912,-0.4486 0.19335,-0.19334 0.0924,0.23101 0.0811,0.50701 -0.0253,0.61334 -0.10634,0.10634 -0.18199,-0.0827 -0.1681,-0.42 z m 0.34528,-1.73334 c 0,-0.44 0.0726,-0.62 0.16141,-0.4 0.0888,0.22 0.0888,0.58 0,0.8 -0.0888,0.22 -0.16141,0.04 -0.16141,-0.4 z m 96.93472,-0.50666 c 0.0154,-0.3728 0.0912,-0.4486 0.19334,-0.19334 0.0924,0.23101 0.0811,0.50701 -0.0253,0.61334 -0.10633,0.10634 -0.18198,-0.0827 -0.16809,-0.42 z m 0.32,-3.52 c 0.0154,-0.3728 0.0912,-0.4486 0.19334,-0.19334 0.0924,0.23101 0.0811,0.50701 -0.0253,0.61334 -0.10633,0.10634 -0.18198,-0.0827 -0.16809,-0.42 z m 0.35712,-3.49334 c 0.006,-0.528 0.0782,-0.70525 0.15939,-0.39392 0.0811,0.31136 0.0758,0.74336 -0.0118,0.96 -0.0877,0.21667 -0.15401,-0.0381 -0.14752,-0.56608 z m -96.64,-0.32 c 0.006,-0.528 0.0782,-0.70525 0.1594,-0.39392 0.0811,0.31136 0.0758,0.74336 -0.0118,0.96 -0.0877,0.21667 -0.15402,-0.0381 -0.14752,-0.56608 z m 0.30816,-2.4 c 0,-0.44 0.0726,-0.62 0.16141,-0.4 0.0888,0.22 0.0888,0.58 0,0.8 -0.0888,0.22 -0.16141,0.04 -0.16141,-0.4 z m 96.66371,-0.32 c 0,-0.616 0.0659,-0.868 0.14634,-0.56 0.0805,0.308 0.0805,0.812 0,1.12 -0.0805,0.308 -0.14634,0.056 -0.14634,-0.56 z m -158.76898,-2.42666 c 0.0154,-0.3728 0.0912,-0.4486 0.19334,-0.19334 0.0924,0.23101 0.0811,0.50701 -0.0253,0.61334 -0.10634,0.10634 -0.18198,-0.0827 -0.1681,-0.42 z m 62.39999,-0.32 c 0.0154,-0.3728 0.0912,-0.4486 0.19335,-0.19334 0.0925,0.23101 0.0811,0.50701 -0.0253,0.61334 -0.10634,0.10634 -0.18199,-0.0827 -0.1681,-0.42 z m -132.47999,-0.32 c 0.0154,-0.3728 0.0912,-0.4486 0.19334,-0.19334 0.0925,0.23101 0.0811,0.50701 -0.0253,0.61334 -0.10633,0.10634 -0.18198,-0.0827 -0.16809,-0.42 z m 229.11999,-0.64 c 0.0154,-0.3728 0.0912,-0.4486 0.19334,-0.19334 0.0924,0.23101 0.0811,0.50701 -0.0253,0.61334 -0.10633,0.10634 -0.18198,-0.0827 -0.16809,-0.42 z m -96.32,-2.56 c 0.0154,-0.3728 0.0912,-0.4486 0.19335,-0.19334 0.0924,0.23101 0.0811,0.50701 -0.0253,0.61334 -0.10634,0.10634 -0.18199,-0.0827 -0.1681,-0.42 z m -132.47999,-0.32 c 0.0154,-0.3728 0.0912,-0.4486 0.19334,-0.19334 0.0925,0.23101 0.0811,0.50701 -0.0253,0.61334 -0.10633,0.10634 -0.18198,-0.0827 -0.16809,-0.42 z m 132.85545,-1.89334 c 0.004,-0.704 0.0691,-0.95434 0.14563,-0.55626 0.0765,0.39805 0.0736,0.97405 -0.006,1.28 -0.0801,0.30592 -0.14272,-0.0198 -0.13917,-0.72374 z m 96.30166,-0.32 c 0.006,-0.528 0.0782,-0.70525 0.15939,-0.39392 0.0811,0.31136 0.0758,0.74336 -0.0118,0.96 -0.0876,0.21667 -0.15401,-0.0381 -0.14752,-0.56608 z m -96.01184,-3.04 c 0,-0.44 0.0726,-0.62 0.16141,-0.4 0.0888,0.22 0.0888,0.58 0,0.8 -0.0888,0.22 -0.16141,0.04 -0.16141,-0.4 z m -133.14527,-0.50666 c 0.0154,-0.3728 0.0912,-0.4486 0.19334,-0.19334 0.0925,0.23101 0.0811,0.50701 -0.0253,0.61334 -0.10633,0.10634 -0.18198,-0.0827 -0.16809,-0.42 z m 229.48898,-1.41334 c 0,-0.616 0.0659,-0.868 0.14634,-0.56 0.0805,0.308 0.0805,0.812 0,1.12 -0.0805,0.308 -0.14634,0.056 -0.14634,-0.56 z m -229.80898,-2.10666 c 0.0154,-0.3728 0.0912,-0.4486 0.19334,-0.19334 0.0925,0.23101 0.0811,0.50701 -0.0253,0.61334 -0.10633,0.10634 -0.18198,-0.0827 -0.16809,-0.42 z m 133.75999,-0.32 c 0.0154,-0.3728 0.0912,-0.4486 0.19335,-0.19334 0.0924,0.23101 0.0811,0.50701 -0.0253,0.61334 -0.10634,0.10634 -0.18199,-0.0827 -0.1681,-0.42 z m -63.67999,-0.32 c 0.0154,-0.3728 0.0912,-0.4486 0.19334,-0.19334 0.0924,0.23101 0.0811,0.50701 -0.0253,0.61334 -0.10634,0.10634 -0.18198,-0.0827 -0.1681,-0.42 z m 63.67999,-6.72 c 0.0154,-0.3728 0.0912,-0.4486 0.19335,-0.19334 0.0924,0.23101 0.0811,0.50701 -0.0253,0.61334 -0.10634,0.10634 -0.18199,-0.0827 -0.1681,-0.42 z m 96.09939,-1.87008 c -0.0964,-0.2512 -0.1216,-0.7912 -0.056,-1.2 0.0877,-0.54678 0.16198,-0.42608 0.28106,0.45674 0.16755,1.24237 0.0789,1.53523 -0.22503,0.74326 z m -295.68247,-4.18326 c 6.4e-4,-2.112 0.0524,-2.93437 0.11509,-1.82746 0.0627,1.10688 0.0622,2.83488 -10e-4,3.84 -0.0633,1.00509 -0.11457,0.0995 -0.11394,-2.01254 z m 199.28836,1.76 c 0,-0.44 0.0726,-0.62 0.16141,-0.4 0.0888,0.22 0.0888,0.58 0,0.8 -0.0888,0.22 -0.16141,0.04 -0.16141,-0.4 z m -0.28982,-3.36 c 0.004,-0.704 0.0691,-0.95434 0.14563,-0.55626 0.0765,0.39805 0.0736,0.97405 -0.006,1.28 -0.0801,0.30592 -0.14272,-0.0198 -0.13917,-0.72374 z m 96.31353,0.16 c 0,-0.616 0.0659,-0.868 0.14634,-0.56 0.0805,0.308 0.0805,0.812 0,1.12 -0.0805,0.308 -0.14634,0.056 -0.14634,-0.56 z m -96.68899,-2.74667 c 0.0154,-0.37278 0.0912,-0.4486 0.19335,-0.19333 0.0924,0.231 0.0811,0.507 -0.0253,0.61333 -0.10634,0.10635 -0.18199,-0.0827 -0.1681,-0.42 z m 96.34528,-2.37333 c 0,-0.44 0.0726,-0.62 0.16141,-0.4 0.0888,0.22 0.0888,0.58 0,0.8 -0.0888,0.22 -0.16141,0.04 -0.16141,-0.4 z m -96.66528,-0.82667 c 0.0154,-0.37278 0.0912,-0.4486 0.19335,-0.19333 0.0925,0.231 0.0811,0.507 -0.0253,0.61333 -0.10634,0.10634 -0.18199,-0.0827 -0.1681,-0.42 z m 96.36899,-2.69333 c 0,-0.616 0.0659,-0.868 0.14634,-0.56 0.0805,0.308 0.0805,0.812 0,1.12 -0.0805,0.308 -0.14634,0.056 -0.14634,-0.56 z m -96.66371,-0.32 c 0,-0.44 0.0726,-0.62 0.16141,-0.4 0.0888,0.22 0.0888,0.58 0,0.8 -0.0888,0.22 -0.16141,0.04 -0.16141,-0.4 z m -0.29628,-2.56 c 0,-0.616 0.0658,-0.868 0.14633,-0.56 0.0805,0.308 0.0805,0.812 0,1.12 -0.0805,0.308 -0.14633,0.056 -0.14633,-0.56 z m 96.62812,-0.16 c 0.006,-0.528 0.0782,-0.70526 0.15939,-0.39391 0.0811,0.31135 0.0758,0.74335 -0.0118,0.96 -0.0877,0.21665 -0.15401,-0.0381 -0.14752,-0.56609 z m -0.35712,-3.86667 c 0.0154,-0.37278 0.0912,-0.4486 0.19334,-0.19333 0.0924,0.231 0.0811,0.507 -0.0253,0.61333 -0.10633,0.10634 -0.18198,-0.0827 -0.16809,-0.42 z m -0.32,-3.2 c 0.0154,-0.37278 0.0912,-0.4486 0.19334,-0.19333 0.0924,0.231 0.0811,0.507 -0.0253,0.61333 -0.10633,0.10634 -0.18198,-0.0827 -0.16809,-0.42 z m -96.96,-0.64 c 0.0154,-0.37278 0.0912,-0.4486 0.19335,-0.19333 0.0924,0.231 0.0811,0.507 -0.0253,0.61333 -0.10634,0.10634 -0.18199,-0.0827 -0.1681,-0.42 z m 96.68899,-1.73333 c 0,-0.616 0.0659,-0.868 0.14634,-0.56 0.0805,0.308 0.0805,0.812 0,1.12 -0.0805,0.308 -0.14634,0.056 -0.14634,-0.56 z m -97.00899,-0.18667 c 0.0154,-0.37278 0.0912,-0.4486 0.19335,-0.19333 0.0924,0.231 0.0811,0.507 -0.0253,0.61333 -0.10634,0.10634 -0.18199,-0.0827 -0.1681,-0.42 z m 96.64,-2.24 c 0.0154,-0.37278 0.0912,-0.4486 0.19334,-0.19333 0.0924,0.231 0.0811,0.507 -0.0253,0.61333 -0.10633,0.10634 -0.18198,-0.0827 -0.16809,-0.42 z m -97.28,-2.56 c 0.0154,-0.37278 0.0912,-0.4486 0.19335,-0.19333 0.0924,0.231 0.0811,0.507 -0.0253,0.61333 -0.10634,0.10634 -0.18199,-0.0827 -0.1681,-0.42 z m -195.42308,-4.13333 c 6.4e-4,-2.112 0.0524,-2.93436 0.11509,-1.82746 0.0627,1.1069 0.0622,2.8349 -10e-4,3.84 -0.0633,1.0051 -0.11457,0.0995 -0.11394,-2.01254 z m 195.1402,1.92 c 0.006,-0.528 0.0782,-0.70526 0.1594,-0.39391 0.0811,0.31135 0.0758,0.74335 -0.0118,0.96 -0.0877,0.21665 -0.15402,-0.0381 -0.14752,-0.56609 z m 96.62816,-2.72 c 0,-0.44 0.0726,-0.62 0.16141,-0.4 0.0888,0.22 0.0888,0.58 0,0.8 -0.0888,0.22 -0.16141,0.04 -0.16141,-0.4 z m -0.34528,-2.42667 c 0.0154,-0.37278 0.0912,-0.4486 0.19334,-0.19333 0.0924,0.231 0.0811,0.507 -0.0253,0.61333 -0.10633,0.10634 -0.18198,-0.0827 -0.16809,-0.42 z m -97.28,-1.28 c 0.0154,-0.37278 0.0912,-0.4486 0.19335,-0.19333 0.0924,0.231 0.0811,0.507 -0.0253,0.61333 -0.10634,0.10634 -0.18199,-0.0827 -0.1681,-0.42 z m -0.29472,-2.05333 c 0,-0.44 0.0726,-0.62 0.16141,-0.4 0.0888,0.22 0.0888,0.58 0,0.8 -0.0888,0.22 -0.16141,0.04 -0.16141,-0.4 z m 96.93472,-1.14667 c 0.0154,-0.37278 0.0912,-0.4486 0.19334,-0.19333 0.0924,0.231 0.0811,0.507 -0.0253,0.61333 -0.10633,0.10634 -0.18198,-0.0827 -0.16809,-0.42 z m -0.29472,-1.73333 c 0,-0.44 0.0726,-0.62 0.16141,-0.4 0.0888,0.22 0.0888,0.58 0,0.8 -0.0888,0.22 -0.16141,0.04 -0.16141,-0.4 z m -97.62528,-3.38667 c 0.0154,-0.37278 0.0912,-0.4486 0.19335,-0.19333 0.0924,0.231 0.0811,0.507 -0.0253,0.61333 -0.10634,0.10634 -0.18199,-0.0827 -0.1681,-0.42 z m 96.66528,-2.69333 c 0,-0.44 0.0726,-0.62 0.16141,-0.4 0.0888,0.22 0.0888,0.58 0,0.8 -0.0888,0.22 -0.16141,0.04 -0.16141,-0.4 z m -97.92,-4.8 c 0,-0.44 0.0726,-0.62 0.16141,-0.4 0.0888,0.22 0.0888,0.58 0,0.8 -0.0888,0.22 -0.16141,0.04 -0.16141,-0.4 z m 96.64,-2.24 c 0,-0.44 0.0726,-0.62 0.16141,-0.4 0.0888,0.22 0.0888,0.58 0,0.8 -0.0888,0.22 -0.16141,0.04 -0.16141,-0.4 z m -97.62528,-3.38667 c 0.0154,-0.37278 0.0912,-0.4486 0.19335,-0.19333 0.0924,0.231 0.0811,0.507 -0.0253,0.61333 -0.10634,0.10634 -0.18199,-0.0827 -0.1681,-0.42 z m -0.29472,-1.73333 c 0,-0.44 0.0726,-0.62 0.16141,-0.4 0.0888,0.22 0.0888,0.58 0,0.8 -0.0888,0.22 -0.16141,0.04 -0.16141,-0.4 z m 96.93472,-0.18667 c 0.0154,-0.37278 0.0912,-0.4486 0.19334,-0.19333 0.0925,0.231 0.0811,0.507 -0.0253,0.61333 -0.10633,0.10634 -0.18198,-0.0827 -0.16809,-0.42 z m -286.94308,-3.81333 c 6.4e-4,-2.112 0.0524,-2.93436 0.11509,-1.82746 0.0627,1.1069 0.0621,2.8349 -0.001,3.84 -0.0633,1.0051 -0.11457,0.0995 -0.11394,-2.01254 z m 286.62308,2.53333 c 0.0154,-0.37278 0.0912,-0.4486 0.19334,-0.19333 0.0924,0.231 0.0811,0.507 -0.0253,0.61333 -0.10633,0.10634 -0.18198,-0.0827 -0.16809,-0.42 z m -97.6,-3.84 c 0.0154,-0.37278 0.0912,-0.4486 0.19335,-0.19333 0.0924,0.231 0.0811,0.507 -0.0253,0.61333 -0.10634,0.10634 -0.18199,-0.0827 -0.1681,-0.42 z m 96.64,-0.96 c 0.0154,-0.37278 0.0912,-0.4486 0.19334,-0.19333 0.0924,0.231 0.0811,0.507 -0.0253,0.61333 -0.10633,0.10634 -0.18198,-0.0827 -0.16809,-0.42 z m -1.28,-5.76 c 0.0154,-0.37278 0.0912,-0.4486 0.19334,-0.19333 0.0924,0.231 0.0811,0.507 -0.0253,0.61333 -0.10633,0.10634 -0.18198,-0.0827 -0.16809,-0.42 z m -96.64,-0.32 c 0.0154,-0.37278 0.0912,-0.4486 0.19335,-0.19333 0.0924,0.231 0.0811,0.507 -0.0253,0.61333 -0.10634,0.10634 -0.18199,-0.0827 -0.1681,-0.42 z m -1.28,-6.08 c 0.0154,-0.37278 0.0912,-0.4486 0.19335,-0.19333 0.0924,0.231 0.0811,0.507 -0.0253,0.61333 -0.10634,0.10634 -0.18199,-0.0827 -0.1681,-0.42 z m 95.68,-3.2 c 0.0154,-0.37278 0.0912,-0.4486 0.19334,-0.19333 0.0924,0.231 0.0811,0.507 -0.0253,0.61333 -0.10633,0.10634 -0.18198,-0.0827 -0.16809,-0.42 z m -1.28,-4.8 c 0.0154,-0.37278 0.0912,-0.4486 0.19334,-0.19333 0.0924,0.231 0.0811,0.507 -0.0253,0.61333 -0.10633,0.10634 -0.18198,-0.0827 -0.16809,-0.42 z m -280.56282,-7.49333 c 0,-1.144 0.0581,-1.612 0.12907,-1.04 0.071,0.572 0.071,1.508 0,2.08 -0.071,0.572 -0.12907,0.104 -0.12907,-1.04 z m 278.32282,-0.82667 c 0.0154,-0.37278 0.0912,-0.4486 0.19334,-0.19333 0.0924,0.231 0.0811,0.507 -0.0253,0.61333 -0.10633,0.10634 -0.18198,-0.0827 -0.16809,-0.42 z m -325.38524,-0.67392 c 0.308,-0.0805 0.812,-0.0805 1.12,0 0.308,0.0805 0.056,0.14635 -0.56,0.14635 -0.616,0 -0.868,-0.0659 -0.56,-0.14635 z m 9.92,-0.32 c 0.308,-0.0805 0.812,-0.0805 1.12,0 0.308,0.0805 0.056,0.14635 -0.56,0.14635 -0.616,0 -0.868,-0.0659 -0.56,-0.14635 z m 9.76373,-0.32573 c 0.39805,-0.0765 0.97405,-0.0736 1.28,0.006 0.30595,0.0801 -0.0197,0.14272 -0.72373,0.13917 -0.704,-0.004 -0.95432,-0.0691 -0.55627,-0.14563 z m 10.07627,-0.31427 c 0.308,-0.0805 0.812,-0.0805 1.12,0 0.308,0.0805 0.056,0.14635 -0.56,0.14635 -0.616,0 -0.868,-0.0659 -0.56,-0.14635 z m 9.76373,-0.32573 c 0.39805,-0.0765 0.97405,-0.0736 1.28,0.006 0.30595,0.0801 -0.0197,0.14272 -0.72373,0.13917 -0.704,-0.004 -0.95432,-0.0691 -0.55627,-0.14563 z m 284.58151,-2.52035 c 0.0154,-0.37278 0.0912,-0.4486 0.19334,-0.19333 0.0924,0.231 0.0811,0.507 -0.0253,0.61333 -0.10633,0.10634 -0.18198,-0.0827 -0.16809,-0.42 z m -99.0784,-4.95462 c -0.11603,-0.18771 -0.1423,-0.40992 -0.0584,-0.4938 0.0839,-0.0839 0.23779,0.0697 0.34202,0.34129 0.21638,0.56387 0.032,0.66306 -0.28359,0.15251 z m 90.93267,-19.67108 c -0.30877,-0.8047 -0.21769,-1.01234 0.15955,-0.36363 0.18679,0.3212 0.2722,0.65141 0.1898,0.7338 -0.0824,0.0824 -0.23959,-0.0842 -0.34935,-0.37017 z m -5.81267,-14.88892 c -0.11603,-0.18771 -0.1423,-0.40992 -0.0584,-0.4938 0.0839,-0.0839 0.23779,0.0697 0.34201,0.34129 0.21639,0.56387 0.032,0.66306 -0.28358,0.15251 z m -111.22768,-9.81871 c -0.39801,-0.50754 -0.38672,-0.51886 0.12084,-0.12082 0.308,0.24155 0.56,0.49355 0.56,0.56 0,0.26337 -0.26279,0.0939 -0.68084,-0.43918 z m -81.59999,-5.44 c -0.39802,-0.50754 -0.38672,-0.51886 0.12083,-0.12082 0.308,0.24155 0.56,0.49355 0.56,0.56 0,0.26337 -0.26278,0.0939 -0.68083,-0.43918 z m 75.83999,-2.24 c -0.39801,-0.50754 -0.38672,-0.51886 0.12084,-0.12082 0.308,0.24155 0.56,0.49355 0.56,0.56 0,0.26337 -0.26279,0.0939 -0.68084,-0.43918 z m -26.49391,-46.66667 c 0.0154,-0.37278 0.0912,-0.4486 0.19334,-0.19333 0.0924,0.231 0.0811,0.507 -0.0253,0.61333 -0.10634,0.10634 -0.18198,-0.0827 -0.1681,-0.42 z m 107.13391,-1.33333 c -0.39801,-0.50754 -0.38672,-0.51886 0.12083,-0.12082 0.53303,0.41804 0.70256,0.68082 0.43917,0.68082 -0.0664,0 -0.31843,-0.252 -0.56,-0.56 z m -107.13391,-5.70667 c 0.0154,-0.37278 0.0912,-0.4486 0.19334,-0.19333 0.0924,0.231 0.0811,0.507 -0.0253,0.61333 -0.10634,0.10634 -0.18198,-0.0827 -0.1681,-0.42 z m 102.33391,-0.69333 c -0.39801,-0.50754 -0.38672,-0.51886 0.12083,-0.12082 0.53303,0.41804 0.70256,0.68082 0.43917,0.68082 -0.0664,0 -0.31843,-0.252 -0.56,-0.56 z m -1.28,-1.6 c -0.39801,-0.50754 -0.38672,-0.51886 0.12083,-0.12082 0.53303,0.41804 0.70256,0.68082 0.43917,0.68082 -0.0664,0 -0.31843,-0.252 -0.56,-0.56 z m -3.84,-4.8 c -0.39801,-0.50754 -0.38672,-0.51886 0.12083,-0.12082 0.53303,0.41804 0.70256,0.68082 0.43917,0.68082 -0.0664,0 -0.31843,-0.252 -0.56,-0.56 z m -1.92,-2.24 c -0.39801,-0.50754 -0.38672,-0.51886 0.12083,-0.12082 0.53303,0.41804 0.70256,0.68082 0.43917,0.68082 -0.0664,0 -0.31843,-0.252 -0.56,-0.56 z m -5.56918,-6.24 -1.90999,-2 2,1.90998 c 1.1,1.05049 2,1.95049 2,2 0,0.23645 -0.3158,-0.0521 -2.09001,-1.90998 z m -82.06998,-2.60082 c 0,-0.0664 0.252,-0.31845 0.56,-0.56 0.50755,-0.39804 0.51885,-0.38672 0.12083,0.12082 -0.41805,0.53304 -0.68083,0.70255 -0.68083,0.43918 z m 77.56959,-1.55918 -0.6096,-0.72 0.72,0.6096 c 0.67661,0.57287 0.86567,0.8304 0.6096,0.8304 -0.0607,0 -0.38473,-0.324 -0.72,-0.72 z m -76.60959,0.27918 c 0,-0.0664 0.252,-0.31845 0.56,-0.56 0.50755,-0.39804 0.51885,-0.38672 0.12083,0.12082 -0.41805,0.53304 -0.68083,0.70255 -0.68083,0.43918 z m 74.51916,-2.03918 c -0.39801,-0.50754 -0.38672,-0.51886 0.12083,-0.12082 0.53303,0.41804 0.70256,0.68082 0.43917,0.68082 -0.0664,0 -0.31843,-0.252 -0.56,-0.56 z m -69.23916,-3.92 c 0.68742,-0.704 1.32189,-1.28 1.40989,-1.28 0.088,0 -0.40247,0.576 -1.08989,1.28 -0.68743,0.704 -1.32189,1.28 -1.40989,1.28 -0.088,0 0.40246,-0.576 1.08989,-1.28 z m 60.46115,-2.09765 c -0.59648,-0.47789 -0.59255,-0.4838 0.0988,-0.14874 0.396,0.1919 0.72,0.41584 0.72,0.49765 0,0.24487 -0.16596,0.17415 -0.81885,-0.34891 z m -50.70115,-4.42811 c 0,-0.0692 0.22348,-0.21152 0.4966,-0.31634 0.2848,-0.10928 0.41325,-0.0556 0.30112,0.12576 -0.1879,0.30407 -0.79772,0.44975 -0.79772,0.19058 z m 37.7,-1.37284 c 0.231,-0.0924 0.507,-0.0811 0.61334,0.0252 0.10634,0.10634 -0.0827,0.18197 -0.42,0.16807 -0.3728,-0.0154 -0.44861,-0.0912 -0.19334,-0.19333 z m -30.08,-1.28 c 0.231,-0.0924 0.507,-0.0811 0.61334,0.0253 0.10634,0.10634 -0.0827,0.18197 -0.42,0.16807 -0.3728,-0.0154 -0.44861,-0.0912 -0.19334,-0.19333 z m 5.1,-0.95333 c 0.22,-0.0888 0.58,-0.0888 0.8,0 0.22,0.0888 0.04,0.16141 -0.4,0.16141 -0.44,0 -0.62,-0.0726 -0.4,-0.16141 z m 14.72,0 c 0.22,-0.0888 0.58,-0.0888 0.8,0 0.22,0.0888 0.04,0.16141 -0.4,0.16141 -0.44,0 -0.62,-0.0726 -0.4,-0.16141 z m -12.46,-0.32667 c 0.231,-0.0924 0.507,-0.0811 0.61334,0.0252 0.10634,0.10634 -0.0827,0.18197 -0.42,0.16807 -0.3728,-0.0154 -0.44861,-0.0912 -0.19334,-0.19333 z m 10.22,0.007 c 0.22,-0.0888 0.58,-0.0888 0.8,0 0.22,0.0888 0.04,0.16141 -0.4,0.16141 -0.44,0 -0.62,-0.0726 -0.4,-0.16141 z"
           id="path490" /><path
           style="fill:#a3a3a3;fill-opacity:1;stroke-width:0.317486"
           d="m 536.41733,795.02195 c -2.98315,-0.39953 -9.16432,-2.01649 -11.27077,-2.94838 -5.7935,-2.56309 -8.15385,-4.12246 -11.747,-7.76073 -6.25461,-6.33316 -10.52535,-13.34056 -12.59689,-20.66897 -1.02709,-3.63367 -1.01847,-11.13429 0.0174,-15.08062 2.40198,-9.15087 7.15945,-17.57138 18.29628,-32.38362 17.23971,-22.92926 21.06733,-28.30022 26.24582,-36.82844 4.42093,-7.2806 9.13056,-16.14669 11.38373,-21.43034 5.87724,-13.78211 8.26869,-21.7973 11.13038,-37.30466 1.09955,-5.95841 1.61241,-8.8508 3.47613,-19.6048 2.0742,-11.96834 4.40182,-28.20264 5.5421,-38.65398 0.26672,-2.44464 0.62063,-5.30202 0.78649,-6.34974 0.16584,-1.0477 0.47515,-4.61942 0.68736,-7.93716 0.48139,-7.52677 0.026,-13.82866 -2.40878,-33.32615 -0.28276,-2.26457 -0.58358,-4.40759 -0.66843,-4.7623 -0.0849,-0.3547 -0.35969,-2.21647 -0.61072,-4.13725 -0.97989,-7.49797 -3.9342,-25.75123 -5.70378,-35.241 -0.26049,-1.39696 -0.75054,-4.04002 -1.08898,-5.87352 -1.7457,-9.45712 -2.33751,-12.0243 -4.39159,-19.04918 -4.11825,-14.08421 -11.28411,-29.30428 -20.62854,-43.81433 -4.68705,-7.27809 -9.67378,-14.19358 -20.71796,-28.73135 -13.76668,-18.1214 -18.7404,-26.60203 -21.31985,-36.3522 -1.02936,-3.89092 -1.05565,-11.4015 -0.053,-15.10818 1.9654,-7.26525 6.96553,-15.32868 13.29875,-21.44621 12.25745,-11.83995 35.44744,-13.80087 54.72544,-4.62754 6.48961,3.08805 13.15317,7.78179 18.92521,13.33068 5.69497,5.47481 11.38231,12.4149 21.3929,26.10507 1.85337,2.53459 9.55296,14.30051 10.67496,16.31265 0.32916,0.5903 0.74135,1.30464 0.91597,1.58744 1.79222,2.90233 3.7726,6.25985 4.61035,7.81633 0.56392,1.0477 1.95267,3.61934 3.08611,5.71474 3.00866,5.56223 7.58785,14.98968 10.69766,22.02393 1.4953,3.3823 2.71874,6.2118 2.71874,6.2878 0,0.076 0.26777,0.73752 0.59506,1.47007 0.32727,0.73254 1.24221,2.97488 2.03318,4.98298 0.79099,2.0081 1.81943,4.61696 2.28543,5.79743 0.46601,1.18049 0.96986,2.53775 1.11966,3.01612 0.14975,0.47839 0.86745,2.51279 1.59485,4.52089 3.38631,9.34836 6.89413,20.70825 9.80371,31.74866 1.18514,4.49706 3.46616,13.81341 4.15868,16.98552 0.38125,1.74618 0.88531,4.03208 1.12016,5.07978 1.53802,6.86149 3.55531,18.23148 5.0414,28.41504 0.26758,1.8335 0.63411,4.26226 0.81457,5.39728 0.9142,5.75043 2.70797,23.93412 3.06235,31.04355 0.11556,2.31876 0.33263,4.29165 0.48236,4.38416 0.34783,0.21497 0.3599,9.97287 0.0124,9.97287 -0.14292,0 -0.4314,2.82166 -0.64103,6.27036 -0.50798,8.35659 -2.11735,24.47871 -2.9078,29.12938 -0.17809,1.0477 -0.5563,3.54792 -0.84052,5.55602 -0.28418,2.0081 -0.69795,4.79404 -0.9195,6.19098 -0.22155,1.39694 -0.62941,3.96858 -0.9064,5.71476 -0.277,1.74618 -0.6422,3.74634 -0.81158,4.44482 -0.16937,0.69846 -0.67879,3.2701 -1.13206,5.71476 -1.11705,6.02481 -1.77647,9.01226 -4.76541,21.58908 -0.45648,1.92078 -0.95973,3.92096 -1.11834,4.4448 -0.15866,0.52386 -0.65508,2.30972 -1.10321,3.96858 -3.43537,12.71672 -6.19874,21.45394 -10.69406,33.81232 -2.43502,6.6943 -3.56702,9.62398 -4.55746,11.79497 -0.25103,0.55027 -0.45642,1.10013 -0.45642,1.22199 0,0.12184 -0.20359,0.6717 -0.45242,1.22197 -0.24883,0.55023 -1.40747,3.20395 -2.57474,5.89713 -3.36409,7.76164 -8.50375,18.39667 -12.20977,25.26452 -3.90442,7.23546 -11.12342,19.29321 -14.44608,24.12898 -6.52712,9.4995 -8.62796,12.39318 -13.13836,18.09672 -9.19282,11.62459 -15.46807,17.8022 -23.5333,23.16706 -2.83821,1.88794 -10.91669,5.99849 -12.54072,6.3811 -0.52385,0.1234 -1.09532,0.33442 -1.26994,0.46886 -0.38439,0.29602 -2.98791,1.02573 -7.46094,2.09117 -2.9498,0.7026 -4.17431,0.80623 -10.6358,0.90006 -4.0162,0.0584 -7.80223,0.0391 -8.41339,-0.0427 z M 414.24511,736.33057 c -3.42864,-0.60295 -6.88862,-1.77784 -10.05647,-3.4148 -4.36851,-2.25735 -9.59035,-8.05012 -12.57231,-13.94686 -4.77588,-9.44425 -3.32441,-18.35252 5.06602,-31.09207 1.53573,-2.33178 6.3302,-8.94302 10.65439,-14.69168 13.11161,-17.43086 18.78517,-26.61519 23.75855,-38.46019 3.33655,-7.94658 5.26359,-14.58152 7.18676,-24.74458 4.45386,-23.53651 7.76089,-47.88786 7.76089,-57.14758 0,-9.25972 -3.30703,-33.61107 -7.76089,-57.14758 -1.92317,-10.16306 -3.85021,-16.79798 -7.18676,-24.74457 -4.97338,-11.845 -10.64694,-21.02932 -23.75855,-38.46021 -13.78071,-18.32038 -17.14802,-24.27454 -18.24046,-32.25325 -1.05651,-7.71626 2.45896,-16.10379 9.82959,-23.45231 4.04634,-4.03422 8.9293,-6.34882 15.76667,-7.47364 3.98927,-0.65627 10.78704,-0.44145 14.77296,0.46684 10.95993,2.49753 20.21953,8.53024 28.72921,18.71735 18.13439,21.70903 31.85863,47.26182 41.97384,78.14977 7.2434,22.11865 12.45221,47.86422 14.48461,71.59322 0.26919,3.14312 0.63325,7.21488 0.80895,9.04836 0.40321,4.20692 0.40321,6.90512 0,11.11204 -0.1757,1.83348 -0.53976,5.90524 -0.80895,9.04836 -2.0324,23.729 -7.24121,49.47456 -14.48461,71.59322 -10.11521,30.88794 -23.83945,56.44074 -41.97384,78.14978 -8.50784,10.1849 -17.73864,16.20019 -28.72921,18.72154 -3.70277,0.84944 -11.56845,1.07107 -15.22039,0.42884 z m -61.32547,-66.08482 c -12.47992,-0.42157 -22.76648,-0.87963 -22.85903,-1.01794 -0.0925,-0.13829 -5.79412,-6.63212 -12.67015,-14.4307 l -12.5019,-14.17928 h -52.9797 -52.9797 c 0.49099,-58.63547 -0.0106,-118.10995 0,-172.39518 h 52.9797 52.9797 l 12.5019,-14.17925 c 6.87603,-7.79859 12.57562,-14.2892 12.66572,-14.42357 0.1204,-0.17953 46.11828,-1.88346 50.6657,-1.87686 0.62577,9.6e-4 0.66004,0.14215 0.55875,2.30276 -0.0594,1.26596 -0.34388,27.49571 -0.63228,58.2883 -0.48897,52.20745 -0.48847,59.79376 0.008,112.39022 0.2925,31.02204 0.56276,57.29693 0.60058,58.38867 l 0.0687,1.98495 -2.85738,-0.0428 c -1.57156,-0.0235 -13.06823,-0.38773 -25.54815,-0.80926 z"
           id="path488" /></g></g></g></svg>
