<?xml version="1.0" encoding="UTF-8" standalone="no"?>
<!-- Created with Inkscape (http://www.inkscape.org/) -->

<svg
   width="189.70888mm"
   height="184.88412mm"
   viewBox="0 0 717.00995 698.77465"
   version="1.1"
   id="svg5"
   xml:space="preserve"
   xmlns="http://www.w3.org/2000/svg"
   xmlns:svg="http://www.w3.org/2000/svg"><defs
     id="defs2" /><g
     id="layer1"
     transform="translate(-38.789577,-172.29009)"><path
       style="fill:#ececec;stroke-width:0.47372"
       d="m 331.07201,870.14956 c -20.34908,-3.27654 -38.33019,-13.56411 -51.0272,-29.19429 -2.42796,-2.98884 -4.58641,-5.63803 -4.79655,-5.8871 -0.21015,-0.24907 -2.26696,-2.69448 -4.57071,-5.43425 -2.30374,-2.73977 -4.41756,-5.21118 -4.69739,-5.49199 -0.27981,-0.28081 -0.84325,-0.96563 -1.25207,-1.52182 -0.40883,-0.55619 -1.30081,-1.57756 -1.98219,-2.2697 -0.68138,-0.69215 -1.57336,-1.71352 -1.98219,-2.26971 -0.40882,-0.55619 -0.97212,-1.241 -1.25178,-1.52181 -0.27964,-0.28081 -2.72435,-3.15979 -5.43267,-6.3977 -2.70832,-3.23791 -5.15547,-6.12421 -5.4381,-6.41404 -0.28265,-0.28983 -0.99661,-1.10496 -1.58659,-1.81142 -0.58998,-0.70645 -1.48196,-1.72397 -1.98218,-2.26114 -0.50023,-0.53718 -1.244,-1.42826 -1.65282,-1.98016 -0.40883,-0.55185 -0.97213,-1.23317 -1.25179,-1.51398 -0.27964,-0.28081 -2.72572,-3.15979 -5.43571,-6.39769 -2.70998,-3.23791 -5.10065,-6.09089 -5.31259,-6.33996 -0.21196,-0.24907 -0.99933,-1.09265 -1.74973,-1.87459 -0.7504,-0.78194 -1.69886,-1.87078 -2.10769,-2.41969 -0.40882,-0.54891 -1.12943,-1.43754 -1.60133,-1.97472 -1.32974,-1.51361 -1.38442,-1.57802 -5.82898,-6.86377 -2.30373,-2.73977 -4.41755,-5.21851 -4.69736,-5.50834 -0.27983,-0.28982 -0.99149,-1.10496 -1.58146,-1.81141 -0.58998,-0.70645 -1.48197,-1.72397 -1.98219,-2.26114 -0.50023,-0.53719 -1.244,-1.42826 -1.65282,-1.98017 -0.40883,-0.55184 -0.97213,-1.23316 -1.25177,-1.51397 -0.27966,-0.28081 -2.72436,-3.15979 -5.43268,-6.3977 -2.70832,-3.23791 -5.15547,-6.12421 -5.4381,-6.41404 -0.28265,-0.28983 -0.99661,-1.10496 -1.58659,-1.81142 -0.58998,-0.70645 -1.48196,-1.72397 -1.98219,-2.26114 -0.50022,-0.53718 -1.24399,-1.42826 -1.65282,-1.98016 -0.40882,-0.55185 -0.97212,-1.23317 -1.25176,-1.51398 -0.27966,-0.28081 -2.72573,-3.15979 -5.43574,-6.39769 -2.70997,-3.23791 -5.10065,-6.09089 -5.31259,-6.33996 -0.21195,-0.24907 -0.99933,-1.09265 -1.74971,-1.87459 -0.75041,-0.78194 -1.69886,-1.87078 -2.10769,-2.41969 -0.40882,-0.54891 -1.12944,-1.43754 -1.60134,-1.97472 -0.47192,-0.53717 -1.0363,-1.18045 -1.25417,-1.42952 -0.21788,-0.24907 -2.61765,-3.10205 -5.3328,-6.33996 -2.71516,-3.23791 -5.31495,-6.29467 -5.77735,-6.79281 -2.17004,-2.33786 -2.68622,-2.92797 -3.37848,-3.86254 -0.40883,-0.55184 -0.97214,-1.23316 -1.25178,-1.51397 -0.27966,-0.28081 -2.72437,-3.15979 -5.43269,-6.3977 -2.70831,-3.23791 -5.15547,-6.12421 -5.4381,-6.41404 -0.28265,-0.28983 -0.9966,-1.10497 -1.58658,-1.81142 -0.58998,-0.70645 -1.48197,-1.72397 -1.98219,-2.26114 -0.50023,-0.53718 -1.24398,-1.42826 -1.65281,-1.98016 -0.40882,-0.55185 -0.97214,-1.23317 -1.25178,-1.51398 -0.27966,-0.28081 -2.72436,-3.15979 -5.43268,-6.39769 -2.70832,-3.23791 -5.15547,-6.12422 -5.4381,-6.41405 -0.28265,-0.28982 -0.99661,-1.10496 -1.58657,-1.81141 -0.59,-0.70646 -1.48198,-1.72398 -1.98219,-2.26115 -0.50024,-0.53718 -1.244,-1.42826 -1.65282,-1.98016 -0.40883,-0.55184 -0.97214,-1.23316 -1.25178,-1.51397 -0.27966,-0.28082 -2.72873,-3.15979 -5.4424,-6.3977 -2.71366,-3.23791 -5.31454,-6.29467 -5.77973,-6.79281 -2.05562,-2.20124 -2.68608,-2.92091 -3.3836,-3.86254 -0.40882,-0.55184 -0.97213,-1.23316 -1.25178,-1.51397 -0.27966,-0.28081 -2.72436,-3.15979 -5.43268,-6.3977 -2.708323,-3.23791 -5.155453,-6.12421 -5.438103,-6.41404 -0.28265,-0.28983 -0.99659,-1.10497 -1.58657,-1.81142 -0.59,-0.70645 -1.48198,-1.72397 -1.98219,-2.26114 -0.50022,-0.53719 -1.24399,-1.42826 -1.65282,-1.98016 -0.40883,-0.55185 -0.97214,-1.23317 -1.25178,-1.51398 -0.27966,-0.28081 -2.7206,-3.15979 -5.42432,-6.3977 -2.70372,-3.2379 -5.04512,-5.98899 -5.20314,-6.11353 -0.158,-0.12453 -1.0588,-1.14345 -2.00176,-2.26427 -0.94296,-1.12081 -1.94069,-2.26762 -2.21715,-2.54843 -0.27647,-0.28082 -0.83717,-0.95896 -1.246,-1.50696 -0.40882,-0.54805 -1.22489,-1.54098 -1.81348,-2.20659 -2.24545,-2.53915 -8.39113,-9.70588 -9.39746,-10.95874 -0.57872,-0.72054 -1.21055,-1.16538 -1.40406,-0.98854 -0.19349,0.17684 -0.27749,0.0869 -0.18663,-0.19979 0.0909,-0.28672 -1.16077,-2.07644 -2.7814,-3.97715 -1.62062,-1.90073 -2.99748,-3.77277 -3.05971,-4.16015 -0.0623,-0.38737 -0.47341,-1.06815 -0.91379,-1.51286 -0.82177,-0.82979 -6.70746,-11.17811 -6.70746,-11.79317 0,-0.18821 -0.60422,-1.53857 -1.34274,-3.00083 -0.73851,-1.46223 -1.38535,-2.86241 -1.43743,-3.11148 -0.052,-0.24907 -0.38039,-1.06421 -0.72957,-1.81142 -0.34917,-0.74721 -0.68306,-1.66424 -0.74197,-2.03784 -0.0589,-0.3736 -0.47152,-1.90199 -0.91687,-3.39641 -3.01987,-10.13329 -4.2159,-18.22706 -4.2159,-28.52981 0,-10.30274 1.19603,-18.3965 4.2159,-28.52981 0.44535,-1.49441 0.85794,-3.0228 0.91687,-3.3964 0.0588,-0.37361 0.3928,-1.29064 0.74197,-2.03785 0.34918,-0.7472 0.67749,-1.56234 0.72957,-1.81141 0.052,-0.24907 0.69892,-1.64924 1.43743,-3.11149 0.73852,-1.46225 1.34274,-2.81262 1.34274,-3.00084 0,-0.61503 5.88569,-10.96336 6.70746,-11.79316 0.44038,-0.44468 0.85159,-1.12547 0.91379,-1.51284 0.0623,-0.38737 1.43909,-2.25945 3.05971,-4.16014 1.62063,-1.90072 2.87225,-3.69044 2.7814,-3.97717 -0.0909,-0.28673 -0.006,-0.37663 0.18663,-0.19981 0.19351,0.17683 0.82534,-0.26799 1.40406,-0.98851 1.00633,-1.2529 7.15201,-8.41963 9.39746,-10.95878 0.58859,-0.66557 1.40466,-1.65852 1.81348,-2.20655 0.40883,-0.54802 0.96953,-1.22616 1.246,-1.50698 0.27646,-0.28082 1.27419,-1.42761 2.21715,-2.54843 0.94296,-1.12081 1.84376,-2.13973 2.00176,-2.26427 0.15802,-0.12453 2.49942,-2.87562 5.20314,-6.11353 2.70372,-3.2379 5.14466,-6.11685 5.42432,-6.39768 0.27964,-0.28081 0.84295,-0.96213 1.25178,-1.51402 0.40883,-0.55189 1.1526,-1.44293 1.65282,-1.98012 0.50021,-0.53717 1.39219,-1.55469 1.98219,-2.26114 0.58998,-0.70645 1.30392,-1.52159 1.58657,-1.81142 0.28265,-0.28982 2.72978,-3.17615 5.438103,-6.41405 2.70832,-3.23791 5.15302,-6.11686 5.43268,-6.39769 0.27965,-0.28081 0.84296,-0.96213 1.25178,-1.51401 0.69752,-0.9416 1.32798,-1.6613 3.3836,-3.86251 0.46519,-0.49814 3.06607,-3.5549 5.77973,-6.79281 2.71367,-3.23791 5.16274,-6.11686 5.4424,-6.39768 0.27964,-0.28082 0.84295,-0.96214 1.25178,-1.51402 0.40882,-0.55189 1.15258,-1.44294 1.65282,-1.98012 0.50021,-0.53717 1.39219,-1.55469 1.98219,-2.26114 0.58996,-0.70646 1.30392,-1.52159 1.58657,-1.81142 0.28263,-0.28983 2.72978,-3.17615 5.4381,-6.41406 2.70832,-3.2379 5.15302,-6.11685 5.43268,-6.39768 0.27964,-0.28081 0.84296,-0.96213 1.25178,-1.51402 0.40883,-0.55189 1.15258,-1.44293 1.65281,-1.98012 0.50022,-0.53717 1.39221,-1.55469 1.98219,-2.26114 0.58998,-0.70645 1.30393,-1.52159 1.58658,-1.81142 0.28263,-0.28982 2.72979,-3.17615 5.4381,-6.41405 2.70832,-3.23791 5.15303,-6.11686 5.43269,-6.39769 0.27964,-0.28081 0.84295,-0.96213 1.25178,-1.51401 0.69226,-0.93453 1.20844,-1.52465 3.37848,-3.86251 0.4624,-0.49814 3.06219,-3.55491 5.77735,-6.79281 2.71515,-3.23791 5.11492,-6.09089 5.3328,-6.33996 0.21787,-0.24907 0.78225,-0.89236 1.25417,-1.42953 0.4719,-0.53719 1.19252,-1.42579 1.60134,-1.9747 0.40883,-0.54889 1.35728,-1.63776 2.10769,-2.41971 0.75038,-0.78196 1.53776,-1.62551 1.74971,-1.87458 0.21194,-0.24907 2.60262,-3.10205 5.31259,-6.33996 2.71001,-3.2379 5.15608,-6.11685 5.43574,-6.39768 0.27964,-0.28081 0.84294,-0.96213 1.25176,-1.51402 0.40883,-0.55189 1.1526,-1.44293 1.65282,-1.98012 0.50023,-0.53717 1.39221,-1.55469 1.98219,-2.26114 0.58998,-0.70645 1.30394,-1.52159 1.58659,-1.81142 0.28263,-0.28982 2.72978,-3.17615 5.4381,-6.41405 2.70832,-3.23791 5.15302,-6.11686 5.43268,-6.39769 0.27964,-0.28081 0.84294,-0.96213 1.25177,-1.51401 0.40882,-0.55189 1.15259,-1.44294 1.65282,-1.98012 0.50022,-0.53717 1.39221,-1.55469 1.98219,-2.26115 0.58997,-0.70645 1.30163,-1.52159 1.58146,-1.81141 0.27981,-0.28983 2.39363,-2.76858 4.69736,-5.50835 4.44456,-5.28576 4.49924,-5.35015 5.82898,-6.86378 0.4719,-0.53719 1.19251,-1.42579 1.60133,-1.9747 0.40883,-0.54889 1.32915,-1.61024 2.04514,-2.35852 1.65559,-1.73027 1.33285,-1.3554 7.12487,-8.27573 2.70999,-3.23791 5.15607,-6.11685 5.43571,-6.39768 0.27966,-0.28081 0.84296,-0.96213 1.25179,-1.51402 0.40882,-0.55189 1.15259,-1.44293 1.65282,-1.98012 0.50022,-0.53717 1.3922,-1.55469 1.98218,-2.26114 0.58998,-0.70645 1.30394,-1.52159 1.58659,-1.81142 0.28263,-0.28982 2.72978,-3.17615 5.4381,-6.41405 2.70832,-3.23791 5.15303,-6.11686 5.43267,-6.39769 0.27966,-0.28081 0.84296,-0.96564 1.25178,-1.52183 0.40883,-0.55619 1.30081,-1.57756 1.98219,-2.2697 0.68138,-0.69215 1.57336,-1.71352 1.98219,-2.26971 0.40882,-0.55619 0.97226,-1.241 1.25207,-1.52183 0.27983,-0.28081 2.39365,-2.7522 4.69739,-5.49197 2.30375,-2.73977 4.36056,-5.18518 4.57071,-5.43425 0.21014,-0.24907 2.36859,-2.89827 4.79655,-5.8871 12.81723,-15.77816 30.80726,-26.00215 51.41943,-29.22238 7.83873,-1.22465 19.74174,-1.22465 27.58049,0 33.46916,5.22888 60.03775,29.50849 65.75958,60.09421 1.35012,7.21693 1.34097,18.03634 -0.0215,25.3189 -1.88101,10.05472 -7.08819,21.68929 -13.18001,29.44852 -1.46883,1.87089 -2.67062,3.5574 -2.67062,3.7478 0,0.19041 -1.02436,1.55355 -2.27636,3.02925 -1.25202,1.47568 -2.75724,3.2548 -3.34494,3.9536 -0.58772,0.6988 -1.40308,1.64777 -1.81191,2.10883 -0.40882,0.46105 -1.07781,1.28738 -1.48664,1.83628 -0.40883,0.5489 -1.30081,1.5643 -1.98219,2.25645 -0.68137,0.69214 -1.57336,1.71351 -1.98219,2.2697 -0.40882,0.55619 -0.97226,1.24102 -1.25207,1.52183 -0.27982,0.28083 -2.39363,2.75221 -4.69737,5.49197 -4.44456,5.28577 -4.49924,5.35015 -5.82898,6.86379 -0.4719,0.53718 -1.19252,1.42579 -1.60134,1.9747 -0.40883,0.5489 -1.35728,1.63777 -2.10769,2.41971 -0.75038,0.78195 -1.53776,1.6255 -1.74971,1.87457 -0.21194,0.24907 -2.60262,3.10205 -5.31259,6.33996 -2.70999,3.23791 -5.15608,6.11687 -5.43574,6.39768 -0.27964,0.28083 -0.84294,0.96565 -1.25176,1.52183 -0.40883,0.55619 -1.30081,1.57756 -1.98219,2.26971 -0.68138,0.69214 -1.57336,1.71351 -1.98219,2.2697 -0.40883,0.55619 -0.97226,1.24102 -1.25209,1.52184 -0.27978,0.28082 -2.3923,2.7522 -4.69446,5.49197 -2.30214,2.73977 -4.41466,5.21116 -4.69448,5.49197 -0.27982,0.28083 -0.84326,0.96213 -1.25208,1.51402 -0.40883,0.55189 -1.07782,1.36529 -1.48664,1.80754 -1.80093,1.94819 -3.27583,3.64198 -3.96438,4.5527 -0.40882,0.54074 -1.15259,1.42265 -1.65282,1.95984 -0.50021,0.53717 -1.39219,1.55469 -1.98219,2.26114 -0.58998,0.70645 -1.30394,1.52159 -1.58657,1.81142 -0.28264,0.28983 -2.72978,3.17615 -5.4381,6.41405 -2.70832,3.23791 -5.15302,6.11687 -5.43268,6.39769 -0.27964,0.28082 -0.84296,0.96213 -1.25178,1.51402 -0.69227,0.93452 -1.20846,1.52464 -3.3785,3.8625 -0.46238,0.49814 -3.06081,3.55491 -5.7743,6.79281 -2.71348,3.23791 -5.16486,6.11687 -5.44749,6.39769 -0.28265,0.28082 -0.84839,0.96809 -1.25722,1.52726 -0.40882,0.55918 -0.96952,1.24645 -1.24599,1.52727 -0.27647,0.28082 -1.27419,1.4276 -2.21715,2.54842 -0.94297,1.12081 -1.84666,2.13973 -2.00821,2.26427 -0.48325,0.37254 -4.43959,5.27302 -4.43959,5.49906 0,0.21068 10.88263,0.19517 191.28115,-0.27271 133.93128,-0.34737 146.75816,-0.35201 149.24517,-0.0539 1.17945,0.14137 4.2629,0.37196 6.85213,0.51249 5.59164,0.30351 7.62573,0.47786 9.78705,0.83891 0.88579,0.14797 2.33527,0.37825 3.22106,0.51172 0.88577,0.13345 2.0565,0.37151 2.60161,0.52899 0.5451,0.15748 1.55567,0.31443 2.24568,0.34877 0.69,0.0344 1.47048,0.17991 1.73441,0.32345 0.3897,0.21198 3.17313,0.89395 4.19643,1.02818 0.13628,0.0178 0.52658,0.19423 0.86727,0.39193 0.34069,0.19769 0.82694,0.24219 1.0806,0.0989 0.25382,-0.1433 0.60364,-0.0501 0.7777,0.20708 0.17391,0.2572 0.51475,0.35551 0.75726,0.21848 0.24266,-0.13699 0.84057,-0.0534 1.32853,0.18598 0.79969,0.3921 2.47712,1.01492 3.11746,1.15747 0.13627,0.0303 0.74951,0.30983 1.36275,0.62111 0.61324,0.31127 1.11498,0.4253 1.11498,0.2534 0,-0.1719 0.44599,0.0563 0.99109,0.50712 0.54511,0.45081 0.9911,0.66273 0.9911,0.47095 0,-0.19178 0.55749,-0.0149 1.23887,0.39311 0.68137,0.40799 1.23886,0.62805 1.23886,0.48901 0,-0.13911 0.50174,-9.1e-4 1.11498,0.30741 0.61324,0.30813 1.41324,0.60557 1.77778,0.66099 0.36469,0.0555 1.05118,0.42183 1.52566,0.81427 0.47449,0.39243 1.20821,0.71352 1.63035,0.71352 0.42215,0 1.03787,0.29778 1.36849,0.66174 0.33047,0.36396 1.08261,0.79517 1.67123,0.95827 0.58862,0.16309 1.80859,0.80219 2.71095,1.42022 0.90236,0.61803 1.96593,1.16733 2.36345,1.22064 0.6772,0.0909 2.1499,1.08801 12.30707,8.33296 5.32945,3.8014 9.98898,7.99024 14.29157,12.84774 1.94564,2.19667 3.7166,3.99394 3.93542,3.99394 0.21881,0 0.39783,0.20692 0.39783,0.45979 0,0.25289 1.08958,1.83222 2.42152,3.50962 1.33194,1.67742 2.89291,3.81402 3.46883,4.74804 0.57592,0.93401 1.51142,2.4473 2.07882,3.36286 9.72883,15.6991 14.3148,32.21289 14.3148,51.5457 0,19.33279 -4.58597,35.84662 -14.3148,51.54571 -0.5674,0.91554 -1.5029,2.42884 -2.07882,3.36285 -0.57592,0.93401 -2.13689,3.07062 -3.46883,4.74804 -1.33194,1.67742 -2.42152,3.25675 -2.42152,3.50961 0,0.25288 -0.17902,0.45979 -0.39783,0.45979 -0.21882,0 -1.98978,1.7973 -3.93542,3.99395 -4.30259,4.8575 -8.96212,9.04636 -14.29157,12.84774 -10.15717,7.24495 -11.62987,8.24213 -12.30707,8.33297 -0.39752,0.0533 -1.46109,0.60256 -2.36345,1.22063 -0.90236,0.618 -2.12233,1.25712 -2.71095,1.42023 -0.58862,0.16308 -1.34076,0.59429 -1.67123,0.95824 -0.33062,0.36397 -0.94634,0.66176 -1.36849,0.66176 -0.42214,0 -1.15586,0.32108 -1.63035,0.71352 -0.47448,0.39244 -1.16097,0.75885 -1.52566,0.81427 -0.36454,0.0555 -1.16454,0.35287 -1.77778,0.661 -0.61324,0.30811 -1.11498,0.44645 -1.11498,0.30739 0,-0.13897 -0.55749,0.0811 -1.23886,0.48904 -0.68138,0.40798 -1.23887,0.58486 -1.23887,0.39307 0,-0.19178 -0.44599,0.02 -0.9911,0.47097 -0.5451,0.45082 -0.99109,0.67901 -0.99109,0.50711 0,-0.17191 -0.50174,-0.0579 -1.11498,0.25342 -0.61324,0.31124 -1.22648,0.59075 -1.36275,0.62109 -0.64034,0.14255 -2.31777,0.76536 -3.11746,1.15749 -0.48796,0.23934 -1.08587,0.32301 -1.32853,0.18598 -0.24251,-0.13698 -0.58335,-0.0385 -0.75726,0.21846 -0.17406,0.25718 -0.53364,0.34485 -0.79938,0.19482 -0.26558,-0.15003 -0.84196,0 -1.28068,0.33226 -0.4388,0.33281 -0.87876,0.53867 -0.97766,0.45751 -0.22518,-0.1847 -3.21696,0.38937 -3.86428,0.74147 -0.26393,0.14355 -1.04441,0.28914 -1.73441,0.32348 -0.69001,0.0344 -1.70058,0.19127 -2.24568,0.34878 -0.54511,0.15745 -1.71584,0.39552 -2.60161,0.52897 -0.88579,0.13346 -2.33527,0.36375 -3.22106,0.51173 -2.16132,0.36107 -4.19541,0.53542 -9.78705,0.83891 -2.58923,0.14053 -5.67268,0.37116 -6.85213,0.51251 -2.48701,0.29802 -15.31389,0.29339 -149.24517,-0.0541 -180.39852,-0.46789 -191.28115,-0.48338 -191.28115,-0.27271 0,0.22602 3.95634,5.1265 4.43959,5.49905 0.16155,0.12454 1.06524,1.14346 2.00821,2.26427 0.94296,1.12082 1.94068,2.26763 2.21715,2.54844 0.27647,0.28081 0.83717,0.96806 1.24599,1.52725 0.40883,0.55919 0.97457,1.24644 1.25722,1.52725 0.28263,0.28081 2.73401,3.15979 5.44749,6.3977 2.71349,3.23791 5.31192,6.29467 5.7743,6.79281 2.17004,2.33786 2.68623,2.92797 3.3785,3.86253 0.40882,0.55185 0.97214,1.23317 1.25178,1.51398 0.27966,0.28081 2.72436,3.15979 5.43268,6.3977 2.70832,3.2379 5.15546,6.12421 5.4381,6.41404 0.28263,0.28983 0.99659,1.10496 1.58657,1.81142 0.59,0.70645 1.48198,1.72397 1.98219,2.26114 0.50023,0.53718 1.244,1.41912 1.65282,1.95987 0.68855,0.91069 2.16345,2.6045 3.96438,4.55268 0.40882,0.44226 1.07781,1.25567 1.48664,1.80757 0.40882,0.55184 0.97226,1.23316 1.25208,1.51397 0.27982,0.28082 2.39234,2.75223 4.69448,5.49199 2.30216,2.73977 4.41468,5.21118 4.69449,5.49199 0.27981,0.28081 0.84325,0.96563 1.25208,1.52182 0.40882,0.55619 1.30081,1.57756 1.98218,2.2697 0.68138,0.69215 1.57337,1.71352 1.98219,2.26971 0.40883,0.55619 0.97213,1.241 1.25179,1.52181 0.27965,0.28082 2.72572,3.15979 5.43571,6.3977 5.50192,6.57372 5.46533,6.53129 7.18782,8.33731 0.68138,0.71442 1.57336,1.74802 1.98219,2.29692 0.40882,0.54892 1.12943,1.43754 1.60134,1.97473 1.32974,1.51361 1.38442,1.57801 5.82897,6.86377 2.30373,2.73976 4.41757,5.21117 4.69738,5.49199 0.27981,0.28081 0.84325,0.96562 1.25208,1.52181 0.40882,0.55619 1.30081,1.57756 1.98218,2.26971 0.68138,0.69214 1.57337,1.70753 1.98219,2.25643 0.40883,0.54891 1.07782,1.37523 1.48664,1.83628 0.40883,0.46105 1.22419,1.41006 1.81189,2.10886 0.58772,0.69879 2.09295,2.47791 3.34495,3.9536 1.25201,1.47566 2.27637,2.83884 2.27637,3.02922 0,0.19043 1.20178,1.8769 2.67062,3.74782 6.09183,7.75921 11.299,19.39379 13.17999,29.44851 1.3624,7.28258 1.37155,18.10194 0.0215,25.31891 -5.72185,30.58571 -32.29042,54.86531 -65.7596,60.09419 -7.64143,1.19385 -20.46396,1.18095 -27.9727,-0.028 z"
       id="path597" /><path
       style="fill:#ececec"
       d="m 289.07519,696.91274 c -11.90177,-2.33508 -25.96188,-8.95548 -35.60724,-16.76616 -3.31763,-2.68658 -9.38668,-8.88111 -13.48678,-13.76563 C 235.88106,661.49643 196.50208,615.2 152.47231,563.5 108.44254,511.8 63.029118,458.475 51.553592,445 40.078066,431.525 28.473938,418.025 25.766641,415 7.2782667,394.342 -1.4256305,367.90236 1.0767298,340 2.1684283,327.8271 5.0092292,317.78694 10.555337,306.5 15.989402,295.44108 18.176918,292.61004 50,255.45134 76.238344,224.81375 116.77364,177.3072 134.00431,157 c 5.36676,-6.325 20.88876,-24.55 34.49333,-40.5 C 182.10221,100.55 204.06813,74.675 217.31079,59 245.21019,25.97621 253.29764,17.643047 262.68796,12.244169 277.40243,3.7842262 289.04618,0.7885309 307,0.843604 c 19.1322,0.058688 34.61219,4.9435158 49.41125,15.592095 28.78567,20.712574 38.212,57.696648 22.58511,88.612401 -4.0771,8.06603 -11.98059,17.98051 -47.39045,59.44874 -19.25701,22.55174 -42.23371,49.46553 -51.05933,59.80843 -8.82562,10.3429 -16.17548,19.36925 -16.33303,20.05855 -0.22877,1.00089 35.41425,1.24148 177,1.19472 L 618.5,245.5 630,248.21325 c 19.23629,4.53852 30.71998,9.87842 46,21.38995 14.32174,10.7896 23.87114,22.49401 31.42985,38.52266 7.5624,16.03644 10.1779,31.81543 8.492,51.23117 -3.38564,38.99076 -31.94544,73.43659 -72.49011,87.42992 -20.71028,7.14782 -7.99077,6.74765 -203.68174,6.40807 C 309.84806,452.96961 264,453.1841 264,454.01725 c 0,0.61996 8.91126,11.55719 19.80279,24.30497 88.35281,103.41074 90.18082,105.6354 95.46384,116.17778 4.95757,9.89292 6.86522,18.16454 6.9188,30 0.0788,17.39738 -4.55782,30.85967 -15.23545,44.23604 C 360.93044,681.288 343.6037,692.02352 327,695.96712 c -9.11517,2.16498 -29.16211,2.66483 -37.92481,0.94562 z"
       id="path944"
       transform="translate(38.789577,172.29009)" /></g></svg>
