<?xml version="1.0" encoding="UTF-8" standalone="no"?>
<!-- Created with Inkscape (http://www.inkscape.org/) -->

<svg
   width="162.51866mm"
   height="84.971512mm"
   viewBox="0 0 162.51866 84.971512"
   version="1.1"
   id="svg5"
   xml:space="preserve"
   xmlns="http://www.w3.org/2000/svg"
   xmlns:svg="http://www.w3.org/2000/svg"><defs
     id="defs2" /><g
     id="layer1"
     transform="translate(-22.254085,-70.860759)"><path
       style="fill:#000000;stroke-width:0.0598684"
       d="m 22.692928,155.69443 c -0.03384,-0.12511 -0.124824,-0.4214 -0.385539,-1.25543 -0.08279,-0.26484 -0.07645,-0.37555 0.07105,-1.24026 0.154293,-0.90456 0.287277,-1.73997 0.651301,-4.09146 0.08917,-0.57603 0.205128,-1.29538 0.257673,-1.59855 0.05254,-0.30318 0.214204,-1.30779 0.359238,-2.23247 0.145027,-0.92468 0.334776,-2.11533 0.42166,-2.64588 0.08688,-0.53056 0.277133,-1.72121 0.422798,-2.64589 0.145657,-0.92468 0.351181,-2.21455 0.456713,-2.86637 0.105539,-0.65183 0.381463,-2.37579 0.613166,-3.83102 0.847448,-5.32248 1.411203,-8.8515 1.629062,-10.19768 0.122659,-0.75794 0.356936,-2.22144 0.520625,-3.25224 0.163688,-1.03079 0.397608,-2.49429 0.519831,-3.25223 0.122217,-0.75794 0.399877,-2.4943 0.617021,-3.85858 0.217144,-1.36429 0.494499,-3.10065 0.616345,-3.85858 0.12184,-0.75794 0.312721,-1.94859 0.424183,-2.64589 0.3304,-2.06704 0.578579,-3.61863 0.780319,-4.87835 0.104381,-0.65182 0.294554,-1.842474 0.422603,-2.645884 0.128056,-0.80341 0.318612,-1.99406 0.423461,-2.64588 0.229225,-1.42498 0.575504,-3.590908 0.616891,-3.858583 0.0302,-0.195316 0.270729,-1.695538 0.618653,-3.858582 0.104843,-0.651824 0.295009,-1.842473 0.422584,-2.645884 0.320113,-2.015856 0.592071,-3.709288 0.779018,-4.850789 0.08689,-0.530555 0.189334,-1.175489 0.227658,-1.433187 0.03833,-0.257698 0.157687,-1.014256 0.265261,-1.681239 0.107567,-0.666984 0.2811,-1.746008 0.385618,-2.397833 0.104518,-0.651825 0.279943,-1.743252 0.389831,-2.425394 0.109889,-0.682142 0.216845,-1.351882 0.237685,-1.48831 0.02415,-0.158081 0.09852,-0.303037 0.205023,-0.399639 l 0.167135,-0.151587 h 3.797502 3.797501 l 0.122048,0.124026 c 0.119148,0.121071 0.1221,1.113195 0.123992,41.658905 l 0.002,41.53487 -0.381151,0.81375 -0.381157,0.81376 -10.090138,0.0131 -10.090144,0.0131 -0.03726,-0.13781 z m 19.453444,-3.74834 c 0.01444,-0.37896 0.04266,-2.62383 0.06271,-4.98859 0.02005,-2.36476 0.06502,-6.37079 0.09995,-8.9023 0.03493,-2.5315 0.106469,-8.77 0.158975,-13.86333 0.05251,-5.09333 0.110929,-10.32722 0.129831,-11.63087 0.0701,-4.8354 0.187994,-14.550364 0.295665,-24.364185 0.03693,-3.365235 0.09571,-8.400684 0.130644,-11.189887 0.03494,-2.789203 0.0636,-5.201506 0.06369,-5.360672 v -0.289394 h -3.511233 c -3.036917,0 -3.511232,0.01089 -3.511232,0.08058 0,0.04431 -0.06034,0.472203 -0.134071,0.950865 -0.07374,0.478657 -0.203976,1.353987 -0.289416,1.945177 -0.08543,0.59119 -0.348588,2.36476 -0.584783,3.941266 -0.236195,1.576506 -0.514669,3.449296 -0.618835,4.161756 -0.104173,0.712459 -0.396789,2.68447 -0.650267,4.382246 -0.253479,1.697776 -0.531673,3.570566 -0.618205,4.161756 -0.08653,0.59119 -0.349224,2.364758 -0.583755,3.941268 -0.234538,1.5765 -0.497854,3.36247 -0.58516,3.96882 -0.0873,0.60635 -0.188475,1.276094 -0.22483,1.488314 -0.03635,0.21222 -0.184294,1.19202 -0.328761,2.17734 -0.245884,1.67708 -1.153122,7.80009 -2.209274,14.91066 -0.252178,1.69778 -0.766073,5.1581 -1.14199,7.6896 -0.375916,2.53151 -0.873653,5.88021 -1.106083,7.44155 -0.232431,1.56135 -0.656659,4.41395 -0.942721,6.3391 -0.511736,3.44383 -0.637939,4.28996 -1.42651,9.56377 -0.217592,1.45524 -0.446511,2.98705 -0.508712,3.40402 l -0.113088,0.75812 9.060508,-0.014 9.060514,-0.014 0.02626,-0.68904 z m 10.890139,3.84611 c 0,-0.022 -0.175562,-0.41532 -0.390137,-0.874 l -0.390137,-0.83397 V 112.59235 71.100465 l 0.150495,-0.119853 0.150489,-0.119853 h 3.753716 3.753715 l 0.170874,0.134317 c 0.168532,0.132482 0.180926,0.197251 0.904435,4.726763 0.704841,4.412613 1.21867,7.628162 2.041911,12.77815 0.210817,1.318808 0.57529,3.600883 0.809944,5.071277 0.234655,1.4704 0.498413,3.11994 0.586135,3.66565 0.08772,0.54572 0.278148,1.73636 0.423188,2.64588 0.14504,0.909534 0.335382,2.100184 0.42298,2.645894 0.0876,0.54571 0.349335,2.18285 0.581636,3.63809 0.232301,1.45524 0.582767,3.65049 0.778817,4.87835 0.196051,1.22786 0.578112,3.62155 0.849016,5.31933 0.270911,1.69778 0.578053,3.62018 0.682545,4.272 0.104492,0.65183 0.294846,1.84247 0.423012,2.64589 0.128167,0.80341 0.289664,1.80802 0.358887,2.23246 0.06922,0.42444 0.259123,1.61509 0.422005,2.64589 0.162882,1.03079 0.353074,2.22144 0.422648,2.64588 0.06958,0.42444 0.259812,1.61509 0.422746,2.64588 0.162941,1.0308 0.367412,2.30826 0.454386,2.83882 0.08697,0.53055 0.261366,1.61581 0.387536,2.41168 0.350447,2.21056 0.672915,4.23535 0.849335,5.33304 0.08771,0.54572 0.395072,2.46812 0.683039,4.272 0.287966,1.80389 0.593729,3.71389 0.679469,4.24444 0.273076,1.68978 0.273355,1.50466 -0.0037,2.44033 l -0.24855,0.83947 h -10.06524 c -5.535874,0 -10.065228,-0.018 -10.065228,-0.04 z m 18.891438,-3.30866 c -0.01986,-0.0985 -0.300028,-1.96512 -0.622613,-4.14798 -0.322585,-2.18285 -0.789579,-5.33311 -1.037771,-7.00056 -0.248185,-1.66746 -0.745642,-5.01616 -1.105453,-7.44155 -0.671406,-4.5258 -1.311926,-8.83471 -2.048492,-13.78065 -0.230265,-1.54619 -0.683708,-4.59723 -1.007652,-6.78008 -0.323944,-2.18286 -0.777315,-5.23389 -1.007489,-6.78008 C 64.28741,101.1043 63.697998,97.140296 63.11499,93.212971 62.790942,91.030116 62.337499,87.97908 62.107325,86.432892 61.613444,83.115201 60.552148,75.970166 60.187305,73.506643 60.045874,72.551644 59.912681,71.677262 59.891321,71.563572 l -0.03884,-0.20671 h -3.521772 -3.521773 l 0.01504,0.978498 c 0.0083,0.538167 0.05974,4.823293 0.114382,9.522494 0.05465,4.699201 0.128439,10.962506 0.163994,13.918452 0.03555,2.95595 0.107398,9.281274 0.159657,14.056264 0.08991,8.2149 0.117483,10.47787 0.200166,16.42653 0.01917,1.37945 0.07656,6.26606 0.127523,10.85915 0.14751,13.29376 0.176348,15.45932 0.206441,15.50323 0.01558,0.0227 4.109735,0.0413 9.098116,0.0413 h 9.069793 l -0.03609,-0.17915 z m 30.858871,3.14875 c -1.86531,-0.26265 -3.247936,-1.3935 -3.794536,-3.10358 -0.12155,-0.38028 -0.14176,-0.58474 -0.13933,-1.40945 0.003,-0.88842 0.0168,-1.00364 0.17979,-1.45804 0.29056,-0.81011 0.63493,-1.31243 1.271596,-1.85482 0.44809,-0.38173 0.66407,-0.51853 1.10914,-0.70253 0.81106,-0.3353 1.24845,-0.41698 2.24329,-0.41893 0.99205,-0.002 1.41738,0.0775 2.24329,0.41893 0.44317,0.18321 0.66354,0.32243 1.11206,0.70253 0.4652,0.39425 0.61034,0.56219 0.86219,0.99771 0.47576,0.82269 0.58125,1.23788 0.58824,2.31515 0.006,0.99224 -0.0719,1.3839 -0.42069,2.10213 -0.8605,1.77214 -2.95786,2.73436 -5.25504,2.4109 z m 2.22423,-0.78664 c 1.31725,-0.37662 2.13399,-1.16264 2.55463,-2.45857 0.17701,-0.54534 0.16182,-1.96816 -0.0273,-2.55221 -0.53455,-1.65122 -2.05719,-2.58551 -4.07996,-2.50346 -2.47487,0.10039 -3.978976,1.68999 -3.844926,4.06346 0.10894,1.9291 1.207436,3.19624 3.079276,3.55203 0.66943,0.12724 1.67228,0.0834 2.31824,-0.10125 z m 19.25796,0.81301 c -1.28521,-0.1745 -2.14529,-0.65047 -2.57497,-1.42498 -0.41628,-0.75036 -0.40943,-0.68387 -0.43297,-4.2031 l -0.0215,-3.21089 h 0.35569 0.35568 l 0.0274,3.01797 c 0.0242,2.66208 0.0411,3.06346 0.14314,3.40382 0.26279,0.87628 0.79153,1.41967 1.58483,1.62874 0.88743,0.23388 2.44997,0.19397 3.16654,-0.0809 0.66647,-0.25562 1.01963,-0.65525 1.27903,-1.4473 0.13558,-0.41395 0.14224,-0.55387 0.16556,-3.47683 l 0.0243,-3.04553 h 0.38572 0.38572 l -0.001,2.38406 c -0.001,2.68952 -0.0649,3.78559 -0.25527,4.41391 -0.31708,1.0465 -1.03347,1.66561 -2.24677,1.9417 -0.387,0.0881 -1.93877,0.15389 -2.34082,0.0993 z m 10.69626,-0.0433 c -1.53035,-0.27451 -2.64268,-1.06111 -3.22307,-2.27922 -0.80807,-1.69599 -0.56083,-3.91786 0.58248,-5.23447 1.79146,-2.063 6.07299,-1.86669 7.38216,0.33847 0.10985,0.18502 0.21811,0.41702 0.24058,0.51555 l 0.0409,0.17915 h -0.39826 c -0.31451,0 -0.39827,-0.0178 -0.39827,-0.0845 0,-0.17767 -0.35465,-0.66608 -0.67798,-0.93368 -0.81237,-0.67238 -2.13879,-0.94519 -3.46997,-0.7137 -1.14069,0.19837 -2.00612,0.76768 -2.47998,1.63143 -0.37295,0.6798 -0.48763,1.18714 -0.48373,2.14 0.007,1.78963 0.67929,2.91294 2.11151,3.52969 1.06087,0.45685 2.78165,0.41766 3.79475,-0.0864 0.55694,-0.27711 1.09471,-0.90198 1.1858,-1.37785 l 0.0366,-0.19127 h 0.38162 c 0.35283,0 0.38153,0.009 0.38026,0.12402 -0.003,0.24345 -0.31493,0.87128 -0.60427,1.21501 -0.47967,0.56986 -1.17682,0.95996 -2.0928,1.17108 -0.53189,0.1226 -1.77124,0.15304 -2.30831,0.0567 z m 23.80621,0.0169 c -1.86531,-0.26265 -3.24794,-1.3935 -3.79454,-3.10358 -0.12155,-0.38028 -0.14176,-0.58474 -0.13933,-1.40945 0.003,-0.88842 0.0168,-1.00364 0.17979,-1.45804 0.29056,-0.81011 0.63493,-1.31243 1.2716,-1.85482 0.44809,-0.38173 0.66407,-0.51853 1.10914,-0.70253 0.81106,-0.3353 1.24845,-0.41698 2.24329,-0.41893 0.99205,-0.002 1.41738,0.0775 2.24329,0.41893 0.44317,0.18321 0.66354,0.32243 1.11206,0.70253 0.4652,0.39425 0.61034,0.56219 0.86219,0.99771 0.47575,0.82269 0.58125,1.23788 0.58824,2.31515 0.006,0.99224 -0.0719,1.3839 -0.42069,2.10213 -0.8605,1.77214 -2.95786,2.73436 -5.25504,2.4109 z m 2.22423,-0.78664 c 1.31725,-0.37662 2.13399,-1.16264 2.55463,-2.45857 0.17701,-0.54534 0.16182,-1.96816 -0.0273,-2.55221 -0.53455,-1.65122 -2.05719,-2.58551 -4.07996,-2.50346 -2.47487,0.10039 -3.97898,1.68999 -3.84493,4.06346 0.10894,1.9291 1.20744,3.19624 3.07928,3.55203 0.66943,0.12724 1.67228,0.0834 2.31824,-0.10125 z m 18.87035,0.78747 c -1.6788,-0.20735 -2.80169,-0.98373 -3.08428,-2.13252 -0.11347,-0.46125 -0.11977,-0.45205 0.30997,-0.45205 h 0.38182 l 0.0395,0.20946 c 0.0612,0.32432 0.40892,0.86227 0.70296,1.08747 0.62555,0.47911 1.69218,0.72208 2.94802,0.67156 1.74449,-0.0702 2.72092,-0.7089 2.71439,-1.77556 -0.006,-0.98727 -0.61905,-1.39323 -2.74698,-1.81922 -2.16809,-0.43402 -2.95592,-0.70793 -3.50737,-1.21943 -0.38844,-0.36031 -0.53127,-0.69525 -0.53127,-1.24585 0,-0.89988 0.52392,-1.55561 1.57146,-1.96684 1.16597,-0.45772 2.84316,-0.43736 4.07705,0.0495 0.4589,0.18106 1.04039,0.61806 1.27509,0.95824 0.13734,0.19906 0.36618,0.74362 0.36618,0.87136 0,0.0248 -0.15484,0.0451 -0.34409,0.0451 h -0.3441 l -0.17725,-0.32738 c -0.47706,-0.88105 -1.56759,-1.31717 -3.13346,-1.25311 -1.26016,0.0516 -1.99903,0.34942 -2.34233,0.94426 -0.15851,0.27466 -0.17455,0.35312 -0.14687,0.71873 0.0693,0.91501 0.60633,1.20185 3.1467,1.68065 1.75137,0.33009 2.40069,0.55242 2.95213,1.01084 0.30513,0.25366 0.64923,0.80652 0.64931,1.04325 3e-5,0.0834 0.0293,0.15159 0.0651,0.15159 0.0358,0 0.065,0.11162 0.065,0.24805 0,0.13643 -0.0254,0.24805 -0.0565,0.24805 -0.0311,0 -0.0726,0.10214 -0.0924,0.22697 -0.06,0.37898 -0.39772,0.88257 -0.82208,1.22572 -0.8739,0.70664 -2.31911,1.00081 -3.93578,0.80115 z M 79.110663,151.17438 v -4.35469 h 2.141045 c 1.177576,0 2.369932,0.026 2.64968,0.0577 1.849639,0.2099 2.751922,0.9862 2.751922,2.36767 0,1.2755 -0.742892,2.08864 -2.243287,2.45538 -0.321948,0.0787 -0.756645,0.0998 -2.487123,0.12052 l -2.096986,0.0252 v 1.84145 1.84146 h -0.357626 -0.357625 z m 4.897044,-0.079 c 1.300671,-0.21097 1.935001,-0.8862 1.852123,-1.97155 -0.07192,-0.9419 -0.667895,-1.43299 -1.926288,-1.5873 -0.238608,-0.0293 -1.260442,-0.0537 -2.270734,-0.0543 l -1.836894,-10e-4 v 1.84661 1.84661 h 1.847428 c 1.333748,0 1.982826,-0.022 2.334365,-0.079 z m 4.791356,0.079 v -4.35469 h 2.559881 c 2.88575,0 3.40616,0.0432 4.12293,0.34235 1.13186,0.47238 1.57729,1.62705 1.1119,2.88233 -0.21856,0.5895 -0.76642,1.07372 -1.43802,1.27097 -0.15239,0.0447 -0.31329,0.0925 -0.35758,0.10603 -0.0488,0.0149 0.0451,0.13116 0.23844,0.29505 0.17542,0.14872 0.39126,0.39145 0.47964,0.53943 0.15667,0.26228 1.47568,3.15612 1.47568,3.23754 0,0.0225 -0.18159,0.0336 -0.40352,0.0245 l -0.40353,-0.0164 -0.59128,-1.32294 c -0.6787,-1.51856 -0.7871,-1.71083 -1.15551,-2.04966 -0.52911,-0.48662 -0.51252,-0.4837 -2.85931,-0.50263 l -2.06447,-0.0166 v 1.95971 1.95972 h -0.357625 -0.357626 z m 5.872421,-0.37834 c 0.67083,-0.18829 1.1129,-0.57818 1.24538,-1.0984 0.0807,-0.31697 0.0499,-0.9366 -0.0607,-1.21873 -0.14909,-0.38052 -0.54573,-0.6787 -1.11736,-0.83998 -0.425,-0.11991 -0.55455,-0.12655 -2.83494,-0.14537 l -2.38959,-0.0197 v 1.74424 1.74424 l 2.35708,-0.021 c 2.23586,-0.0199 2.37986,-0.0274 2.80009,-0.14532 z m 16.040266,0.37834 v -4.36574 l 2.16201,0.0272 c 2.29876,0.0289 2.56999,0.0554 3.44965,0.33604 0.96332,0.30738 1.63937,0.81976 2.09118,1.58488 0.43738,0.74068 0.52348,1.14289 0.51755,2.4176 -0.004,0.92766 -0.0246,1.13529 -0.14779,1.51587 -0.47776,1.47554 -1.46769,2.30169 -3.2137,2.68201 -0.47675,0.10385 -0.76985,0.1193 -2.69689,0.14218 l -2.16201,0.0257 z m 4.259,3.61675 c 1.75421,-0.22686 2.68237,-0.92985 3.0649,-2.32137 0.17935,-0.65245 0.16417,-2.25374 -0.027,-2.84731 -0.35922,-1.11535 -1.09821,-1.72513 -2.47588,-2.04297 -0.43098,-0.0994 -0.73671,-0.11799 -2.30139,-0.13977 l -1.80438,-0.0251 v 3.7265 3.72649 l 1.47927,-5.5e-4 c 0.92419,0 1.69886,-0.0288 2.06447,-0.0761 z m 30.07306,-3.28602 v -4.02395 h -1.78813 -1.78813 v -0.33073 -0.33074 h 3.93388 3.93388 v 0.33074 0.33073 h -1.78813 -1.78812 v 4.02395 4.02395 h -0.35763 -0.35762 z m 6.5673,-0.33073 v -4.35469 h 0.35763 0.35762 v 4.35469 4.35468 h -0.35762 -0.35763 z m 14.95525,0 v -4.35469 l 0.53644,6.1e-4 0.53644,6.1e-4 3.08858,3.95086 3.08858,3.95087 0.0167,-3.95148 0.0167,-3.95147 h 0.38971 0.38971 v 4.35469 4.35468 h -0.50794 -0.50794 l -3.11708,-3.95504 -3.11708,-3.95505 -0.0167,3.95505 -0.0167,3.95504 h -0.38971 -0.38971 z M 79.110663,131.60586 v -4.35469 h 0.357625 0.357626 v 2.37487 c 0,1.3167 0.0251,2.36667 0.05634,2.35649 0.03099,-0.0101 1.336934,-1.0726 2.902099,-2.36109 l 2.845756,-2.34271 0.527855,-0.0149 0.527855,-0.0149 -0.976181,0.8142 c -0.5369,0.44781 -1.479568,1.2334 -2.094827,1.74574 -0.637575,0.53093 -1.100069,0.95763 -1.075445,0.9922 0.05779,0.0812 4.081268,4.68949 4.324258,4.95281 l 0.190751,0.20671 h -0.511541 -0.511541 l -1.960991,-2.2738 c -1.07854,-1.2506 -2.002943,-2.32193 -2.054227,-2.38075 -0.08811,-0.10104 -0.151009,-0.0588 -1.141703,0.76679 l -1.04846,0.87371 v 1.50703 1.50702 h -0.357624 -0.357625 z m 8.583012,4.33976 c 0,-0.0111 0.888186,-1.96569 1.973748,-4.34353 l 1.973751,-4.32336 h 0.54484 0.54484 l 2.08679,4.32713 2.0868,4.32712 -0.42123,0.0165 c -0.23167,0.009 -0.44214,-0.003 -0.46771,-0.0276 -0.0256,-0.0242 -0.32059,-0.65826 -0.65561,-1.40896 l -0.60912,-1.36492 -2.52777,0.0144 -2.52777,0.0144 -0.598809,1.37807 -0.598801,1.37806 -0.401978,0.0164 c -0.221084,0.009 -0.401971,0.007 -0.401971,-0.004 z m 6.808249,-3.36134 c -0.27005,-0.56287 -2.27176,-4.59406 -2.30989,-4.65182 -0.0347,-0.0526 -0.41596,0.69526 -1.13386,2.22427 -0.594852,1.26694 -1.100918,2.34694 -1.124593,2.39999 -0.0405,0.0908 0.09449,0.0965 2.279183,0.0965 1.83206,0 2.31524,-0.0145 2.28916,-0.0689 z m 4.37567,-0.97842 v -4.35469 h 0.35763 0.35762 v 4.35469 4.35468 h -0.35762 -0.35763 z"
       id="path208" /></g></svg>
